<?xml version="1.0" encoding="UTF-8" standalone="no"?>
<svg
   xmlns:dc="http://purl.org/dc/elements/1.1/"
   xmlns:cc="http://creativecommons.org/ns#"
   xmlns:rdf="http://www.w3.org/1999/02/22-rdf-syntax-ns#"
   xmlns:svg="http://www.w3.org/2000/svg"
   xmlns="http://www.w3.org/2000/svg"
   viewBox="0 0 2560 1440"
   height="1440"
   width="2560"
   xml:space="preserve"
   id="svg2"
   version="1.1"><metadata
     id="metadata8"><rdf:RDF><cc:Work
         rdf:about=""><dc:format>image/svg+xml</dc:format><dc:type
           rdf:resource="http://purl.org/dc/dcmitype/StillImage" /></cc:Work></rdf:RDF></metadata><defs
     id="defs6"><clipPath
       id="clipPath20"
       clipPathUnits="userSpaceOnUse"><path
         id="path18"
         d="M 0,1080 H 1920 V 0 H 0 Z" /></clipPath><clipPath
       id="clipPath28"
       clipPathUnits="userSpaceOnUse"><path
         id="path26"
         d="M -531.316,1573.88 H 1544.08 V -501.515 H -531.316 Z" /></clipPath><clipPath
       id="clipPath32"
       clipPathUnits="userSpaceOnUse"><path
         id="path30"
         d="M 1212.513,0 H 0 v 1080 h 1212.513 z" /></clipPath><clipPath
       id="clipPath36"
       clipPathUnits="userSpaceOnUse"><path
         id="path34"
         d="M -531.316,1573.88 H 1544.08 V -501.515 H -531.316 Z" /></clipPath><clipPath
       id="clipPath40"
       clipPathUnits="userSpaceOnUse"><path
         id="path38"
         d="M -531.316,1573.88 H 1544.08 V -501.515 H -531.316 Z" /></clipPath><radialGradient
       id="radialGradient50"
       spreadMethod="pad"
       gradientTransform="matrix(0,759.0238,759.0238,0,513.47607,557.70062)"
       gradientUnits="userSpaceOnUse"
       r="1"
       cy="0"
       cx="0"
       fy="0"
       fx="0"><stop
         id="stop46"
         offset="0"
         style="stop-opacity:1;stop-color:#000000" /><stop
         id="stop48"
         offset="1"
         style="stop-opacity:1;stop-color:#ffffff" /></radialGradient><clipPath
       id="clipPath100"
       clipPathUnits="userSpaceOnUse"><path
         id="path98"
         d="M 0,88.44 H 231.597 V 1080 H 0 Z" /></clipPath><clipPath
       id="clipPath120"
       clipPathUnits="userSpaceOnUse"><path
         id="path118"
         d="M 788.431,0 H 1920 V 1080 H 788.431 Z" /></clipPath><clipPath
       id="clipPath168"
       clipPathUnits="userSpaceOnUse"><path
         id="path166"
         d="M 0,1080 H 1920 V 0 H 0 Z" /></clipPath><clipPath
       id="clipPath392"
       clipPathUnits="userSpaceOnUse"><path
         id="path390"
         d="M 703.114,910.626 H 733.62 V 785.907 h -30.506 z" /></clipPath><clipPath
       id="clipPath408"
       clipPathUnits="userSpaceOnUse"><path
         id="path406"
         d="M 740.34,863.313 H 854.117 V 762.189 H 740.34 Z" /></clipPath><clipPath
       id="clipPath648"
       clipPathUnits="userSpaceOnUse"><path
         id="path646"
         d="M 609.042,586.55 H 793.287 V 491.878 H 609.042 Z" /></clipPath><clipPath
       id="clipPath664"
       clipPathUnits="userSpaceOnUse"><path
         id="path662"
         d="m 670.902,415.931 h 56.913 v -61.845 h -56.913 z" /></clipPath><clipPath
       id="clipPath680"
       clipPathUnits="userSpaceOnUse"><path
         id="path678"
         d="M 564.402,559.88 H 727.877 V 159.898 H 564.402 Z" /></clipPath><clipPath
       id="clipPath700"
       clipPathUnits="userSpaceOnUse"><path
         id="path698"
         d="M 636.011,471.489 H 945.335 V 159.898 H 636.011 Z" /></clipPath><clipPath
       id="clipPath720"
       clipPathUnits="userSpaceOnUse"><path
         id="path718"
         d="m 564.412,602.382 h 81.116 V 256.284 h -81.116 z" /></clipPath><clipPath
       id="clipPath800"
       clipPathUnits="userSpaceOnUse"><path
         id="path798"
         d="M 237.756,599.081 H 449.113 V 568.064 H 237.756 Z" /></clipPath><clipPath
       id="clipPath816"
       clipPathUnits="userSpaceOnUse"><path
         id="path814"
         d="m 398.102,490.05 h 28.687 v -82.894 h -28.687 z" /></clipPath><clipPath
       id="clipPath832"
       clipPathUnits="userSpaceOnUse"><path
         id="path830"
         d="M 228.885,562.756 H 534.883 V 229.694 H 228.885 Z" /></clipPath><clipPath
       id="clipPath852"
       clipPathUnits="userSpaceOnUse"><path
         id="path850"
         d="M 439.023,637.441 H 618.792 V 229.694 H 439.023 Z" /></clipPath><clipPath
       id="clipPath880"
       clipPathUnits="userSpaceOnUse"><path
         id="path878"
         d="M 0,1080 H 1920 V 0 H 0 Z" /></clipPath><clipPath
       id="clipPath922"
       clipPathUnits="userSpaceOnUse"><path
         id="path920"
         d="M 0,1080 H 1920 V 0 H 0 Z" /></clipPath></defs><g
     transform="matrix(1.3333333,0,0,-1.3333333,0,1440)"
     id="g10"><path
       id="path12"
       style="fill:#470909;fill-opacity:1;fill-rule:nonzero;stroke:none"
       d="M 0,0 H 1920 V 1080 H 0 Z" /><g
       id="g14"><g
         clip-path="url(#clipPath20)"
         id="g16"><g
           id="g22"><g
             id="g24" /><g
             id="g84"><g
               style="opacity:0.52000397"
               id="g82"
               clip-path="url(#clipPath28)"><g
                 id="g80"><g
                   id="g78"
                   clip-path="url(#clipPath32)"><g
                     id="g76"><g
                       id="g52" /><g
                       id="g74"><g
                         id="g72"
                         clip-path="url(#clipPath36)"><g
                           id="g70"><g
                             id="g54" /><g
                             id="g68"><g
                               style="opacity:0.5"
                               id="g66"
                               clip-path="url(#clipPath40)"><g
                                 id="g64"><g
                                   id="g62"><g
                                   id="g60"><g
                                   id="g58"><path
                                   id="path56"
                                   style="fill:url(#radialGradient50);stroke:none"
                                   d="M 1102.799,-317.706 506.383,536.183 947.666,-407.272 Z m 200.68,183.46 -797.096,670.429 670.43,-797.094 z M 1449.839,94.901 506.383,536.183 1360.271,-60.23 Z M 1531.904,354.122 506.383,536.183 1485.539,181.095 Z M 1544.08,625.75 506.383,536.183 1544.078,446.618 V 625.75 Z M 1485.54,891.274 506.383,536.183 1531.9,718.246 Z M 1360.271,1132.6 506.383,536.183 1449.835,977.465 Z m -183.459,200.68 -670.429,-797.097 797.093,670.43 z m -229.148,146.36 -441.281,-943.457 596.412,853.888 z m -259.221,82.064 -182.06,-1025.521 355.088,979.156 z m -271.628,12.177 89.568,-1037.698 89.564,1037.695 H 416.815 Z M 151.291,1515.341 506.383,536.183 324.32,1561.701 Z M -90.034,1390.073 506.383,536.183 65.1,1479.637 Z m -200.68,-183.46 797.097,-670.43 -670.431,797.094 z M -437.075,977.465 506.383,536.183 -347.506,1132.597 Z M -519.139,718.244 506.383,536.183 -472.774,891.272 Z M -531.316,446.615 506.383,536.183 -531.313,625.749 Z M -472.775,181.093 506.383,536.183 -519.136,354.121 Z M -347.508,-60.233 506.383,536.183 -437.072,94.901 Z m 183.46,-200.681 670.431,797.097 -797.095,-670.429 z M 65.1,-407.273 506.383,536.183 -90.033,-317.705 Z M 324.321,-489.338 506.383,536.183 151.292,-442.972 Z m 92.495,-12.177 h 179.133 0.001 L 506.383,536.183 416.816,-501.513 Z m 271.627,12.179 -182.06,1025.519 355.09,-979.158 -173.028,-46.362 v 10e-4 z" /></g></g></g></g></g></g></g></g></g></g></g></g></g></g></g><g
           transform="translate(606.8618,922.0947)"
           id="g86"><path
             id="path88"
             style="fill:#c64211;fill-opacity:1;fill-rule:nonzero;stroke:none"
             d="m 0,0 c 0,-42.441 -61.484,-76.847 -137.328,-76.847 -75.844,0 -137.328,34.406 -137.328,76.847 0,42.441 61.484,76.847 137.328,76.847 C -61.484,76.847 0,42.441 0,0" /></g><g
           transform="translate(425.603,866.2197)"
           id="g90"><path
             id="path92"
             style="fill:#c64211;fill-opacity:1;fill-rule:nonzero;stroke:none"
             d="M 0,0 C 0,0 13.583,-37.379 60.799,-51.15 41.126,-31.478 43.931,-7.87 43.931,-7.87 Z" /></g></g></g><g
       id="g94"><g
         clip-path="url(#clipPath100)"
         id="g96"><g
           transform="translate(204.4355,1159.6343)"
           id="g102"><path
             id="path104"
             style="fill:#c64211;fill-opacity:1;fill-rule:nonzero;stroke:none"
             d="M 0,0 C 0,0 11.293,-384.625 -380.213,-620.764 H -557.084 V 0.051 Z" /></g><g
           transform="translate(151.5542,1159.6392)"
           id="g106"><path
             id="path108"
             style="fill:#881f04;fill-opacity:1;fill-rule:nonzero;stroke:none"
             d="m 0,0 c 0,0 -70.035,-467.823 -354.845,-620.344 l -18.676,1.556 c 0,0 277.028,274.296 297.26,618.834 C -34.24,0.046 0,0 0,0" /></g><g
           transform="translate(124.3418,1159.6416)"
           id="g110"><path
             id="path112"
             style="fill:#a82d08;fill-opacity:1;fill-rule:nonzero;stroke:none"
             d="m 0,0 c 0,0 -47.014,-400.4 -322.128,-611.017 h -29.858 c 0,0 218.164,177.293 255.337,611.06 C -27.26,0.043 0,0 0,0" /></g></g></g><g
       id="g114"><g
         clip-path="url(#clipPath120)"
         id="g116"><g
           transform="translate(841.436,1235.4058)"
           id="g122"><path
             id="path124"
             style="fill:#c64211;fill-opacity:1;fill-rule:nonzero;stroke:none"
             d="m 0,0 c 0,0 -22.039,-750.592 741.981,-1211.412 h 345.161 V 0.098 Z" /></g><g
           transform="translate(944.6338,1235.4146)"
           id="g126"><path
             id="path128"
             style="fill:#881f04;fill-opacity:1;fill-rule:nonzero;stroke:none"
             d="m 0,0 c 0,0 136.673,-912.951 692.474,-1210.592 l 36.446,3.037 c 0,0 -540.615,535.284 -580.099,1207.644 C 66.817,0.089 0,0 0,0" /></g><g
           transform="translate(997.7373,1235.4194)"
           id="g130"><path
             id="path132"
             style="fill:#a82d08;fill-opacity:1;fill-rule:nonzero;stroke:none"
             d="m 0,0 c 0,0 91.747,-781.375 628.628,-1192.39 h 58.268 c 0,0 -425.744,345.983 -498.286,1192.474 C 53.198,0.084 0,0 0,0" /></g><g
           transform="translate(1754.5352,23.9941)"
           id="g134"><path
             id="path136"
             style="fill:#a82d08;fill-opacity:1;fill-rule:nonzero;stroke:none"
             d="M 0,0 C 0,0 -511.03,747.795 -305.732,1012.204 -229.754,1110.057 -229.658,324.762 84.69,19.035 31.493,-15.37 0,0 0,0" /></g><g
           transform="translate(1562.2695,1235.5039)"
           id="g138"><path
             id="path140"
             style="fill:#881f04;fill-opacity:1;fill-rule:nonzero;stroke:none"
             d="m 0,0 c 0,0 21.763,-661.292 297.422,-1185.035 h 50.664 c 0,0 -210.257,843.403 -210.257,1190.442 C 31.435,5.407 0,0 0,0" /></g><g
           transform="translate(1580.4922,1235.5039)"
           id="g142"><path
             id="path144"
             style="fill:#a82d08;fill-opacity:1;fill-rule:nonzero;stroke:none"
             d="m 0,0 c 0,0 21.763,-661.292 297.422,-1185.035 h 50.664 c 0,0 -210.256,843.403 -210.256,1190.442 C 31.435,5.407 0,0 0,0" /></g><g
           transform="translate(1730.4268,23.9941)"
           id="g146"><path
             id="path148"
             style="fill:#a82d08;fill-opacity:1;fill-rule:nonzero;stroke:none"
             d="m 0,0 c -15.927,16.233 -30.902,33.386 -45.483,50.845 -14.575,17.468 -28.69,35.324 -42.406,53.485 -27.359,36.376 -53.076,73.996 -77.179,112.627 -24.153,38.604 -46.568,78.291 -67.468,118.759 -20.77,40.536 -39.948,81.895 -57.315,124.01 -2.144,5.275 -4.353,10.524 -6.427,15.828 l -6.249,15.898 c -2.068,5.306 -4.035,10.651 -6.056,15.974 l -3.007,7.994 -2.899,8.035 c -7.817,21.394 -15.073,42.991 -21.906,64.717 l -5.046,16.32 -4.796,16.395 c -0.791,2.735 -1.619,5.459 -2.379,8.203 l -2.27,8.233 c -1.498,5.493 -3.063,10.968 -4.504,16.476 -2.835,11.029 -5.784,22.029 -8.369,33.119 -1.299,5.543 -2.709,11.06 -3.918,16.624 l -3.703,16.672 c -9.689,44.499 -17.177,89.462 -22.727,134.637 l -1.871,16.965 -0.934,8.482 -0.785,8.497 -1.561,16.993 c -0.486,5.666 -0.85,11.344 -1.281,17.014 -0.919,11.337 -1.466,22.699 -2.083,34.054 -0.336,5.675 -0.474,11.361 -0.662,17.043 l -0.547,17.045 c 1.304,-22.701 2.74,-45.387 4.911,-68.008 0.545,-5.655 1.024,-11.315 1.623,-16.964 l 1.901,-16.933 0.957,-8.465 1.104,-8.448 2.208,-16.892 c 3.214,-22.483 6.599,-44.942 10.792,-67.26 1.963,-11.182 4.238,-22.305 6.435,-33.44 0.534,-2.787 1.123,-5.564 1.731,-8.336 l 1.795,-8.322 c 1.222,-5.542 2.331,-11.108 3.664,-16.625 l 3.867,-16.579 c 1.262,-5.532 2.726,-11.017 4.079,-16.527 2.669,-11.031 5.661,-21.979 8.561,-32.95 1.471,-5.48 3.066,-10.926 4.593,-16.39 l 2.314,-8.19 c 0.774,-2.729 1.616,-5.439 2.422,-8.159 l 4.883,-16.305 5.132,-16.228 c 1.679,-5.419 3.477,-10.8 5.26,-16.186 1.802,-5.38 3.513,-10.789 5.389,-16.144 l 5.579,-16.079 c 1.858,-5.361 3.852,-10.673 5.771,-16.011 l 2.906,-7.999 3.012,-7.958 c 2.026,-5.299 3.996,-10.62 6.067,-15.901 l 6.259,-15.828 c 2.074,-5.28 4.297,-10.501 6.429,-15.756 34.503,-83.963 75.909,-165.067 123.174,-242.601 11.813,-19.388 24.063,-38.51 36.627,-57.425 12.573,-18.909 25.522,-37.572 38.899,-55.929 13.321,-18.396 27.052,-36.502 41.256,-54.239 7.097,-8.871 14.322,-17.641 21.678,-26.302 C -15.212,16.894 -7.764,8.304 0,0" /></g><g
           transform="translate(1928.5781,50.4688)"
           id="g150"><path
             id="path152"
             style="fill:#ffa700;fill-opacity:1;fill-rule:nonzero;stroke:none"
             d="m 0,0 -373.241,-9.188 c 0,0 -65.925,-70.453 25.155,-131.196 H 0 Z" /></g><g
           transform="translate(1555.3369,41.2813)"
           id="g154"><path
             id="path156"
             style="fill:#ee8800;fill-opacity:1;fill-rule:nonzero;stroke:none"
             d="m 0,0 c 0,0 -32.072,-67.753 30.798,-89.351 62.87,-21.597 156.368,9.449 238.583,13.498 82.214,4.05 54.808,-9.449 -9.673,-17.547 -64.482,-8.1 -142.092,-33.746 113.533,-37.796 H 25.155 C -65.926,-70.453 0,0 0,0" /></g><g
           transform="translate(1928.5781,32.9219)"
           id="g158"><path
             id="path160"
             style="fill:#ee8800;fill-opacity:1;fill-rule:nonzero;stroke:none"
             d="M 0,0 C 0,0 -242.496,-12.149 -329.547,-20.248 -416.598,-28.347 0,-25.647 0,-25.647 Z" /></g></g></g><g
       id="g162"><g
         clip-path="url(#clipPath168)"
         id="g164"><g
           transform="translate(120.6201,534.8525)"
           id="g170"><path
             id="path172"
             style="fill:#c64211;fill-opacity:1;fill-rule:nonzero;stroke:none"
             d="m 0,0 c 0,-12.914 -2.159,-23.384 -4.821,-23.384 -2.663,0 -4.822,10.47 -4.822,23.384 0,12.915 2.159,23.385 4.822,23.385 C -2.159,23.385 0,12.915 0,0" /></g><g
           transform="translate(115.7988,539.6743)"
           id="g174"><path
             id="path176"
             style="fill:#c64211;fill-opacity:1;fill-rule:nonzero;stroke:none"
             d="m 0,0 c 12.915,0 23.384,-2.159 23.384,-4.822 0,-2.662 -10.469,-4.821 -23.384,-4.821 -12.915,0 -23.385,2.159 -23.385,4.821 C -23.385,-2.159 -12.915,0 0,0" /></g><g
           transform="translate(715.4888,980.2881)"
           id="g178"><path
             id="path180"
             style="fill:#ffa700;fill-opacity:1;fill-rule:nonzero;stroke:none"
             d="m 0,0 c 0,-12.419 -2.076,-22.487 -4.636,-22.487 -2.561,0 -4.637,10.068 -4.637,22.487 0,12.419 2.076,22.487 4.637,22.487 C -2.076,22.487 0,12.419 0,0" /></g><g
           transform="translate(710.8525,984.9248)"
           id="g182"><path
             id="path184"
             style="fill:#ffa700;fill-opacity:1;fill-rule:nonzero;stroke:none"
             d="m 0,0 c 12.419,0 22.487,-2.076 22.487,-4.637 0,-2.56 -10.068,-4.636 -22.487,-4.636 -12.42,0 -22.488,2.076 -22.488,4.636 C -22.488,-2.076 -12.42,0 0,0" /></g><g
           transform="translate(315.7642,138.5771)"
           id="g186"><path
             id="path188"
             style="fill:#ffa700;fill-opacity:1;fill-rule:nonzero;stroke:none"
             d="m 0,0 c 0,-17.556 -2.935,-31.788 -6.554,-31.788 -3.62,0 -6.554,14.232 -6.554,31.788 0,17.557 2.934,31.788 6.554,31.788 C -2.935,31.788 0,17.557 0,0" /></g><g
           transform="translate(309.21,145.1318)"
           id="g190"><path
             id="path192"
             style="fill:#ffa700;fill-opacity:1;fill-rule:nonzero;stroke:none"
             d="m 0,0 c 17.556,0 31.788,-2.935 31.788,-6.555 0,-3.62 -14.232,-6.553 -31.788,-6.553 -17.556,0 -31.788,2.933 -31.788,6.553 C -31.788,-2.935 -17.556,0 0,0" /></g><g
           transform="translate(578.0493,786.3726)"
           id="g194"><path
             id="path196"
             style="fill:#c64211;fill-opacity:1;fill-rule:nonzero;stroke:none"
             d="m 0,0 c 0,-16.254 -2.717,-29.431 -6.068,-29.431 -3.351,0 -6.069,13.177 -6.069,29.431 0,16.254 2.718,29.431 6.069,29.431 C -2.717,29.431 0,16.254 0,0" /></g><g
           transform="translate(571.981,792.4409)"
           id="g198"><path
             id="path200"
             style="fill:#c64211;fill-opacity:1;fill-rule:nonzero;stroke:none"
             d="m 0,0 c 16.254,0 29.431,-2.717 29.431,-6.068 0,-3.351 -13.177,-6.068 -29.431,-6.068 -16.254,0 -29.43,2.717 -29.43,6.068 C -29.43,-2.717 -16.254,0 0,0" /></g><g
           transform="translate(931.0068,170.6484)"
           id="g202"><path
             id="path204"
             style="fill:#c64211;fill-opacity:1;fill-rule:nonzero;stroke:none"
             d="m 0,0 c 0,-23.448 -3.919,-42.458 -8.754,-42.458 -4.834,0 -8.754,19.01 -8.754,42.458 0,23.449 3.92,42.457 8.754,42.457 C -3.919,42.457 0,23.449 0,0" /></g><g
           transform="translate(922.2524,179.4033)"
           id="g206"><path
             id="path208"
             style="fill:#c64211;fill-opacity:1;fill-rule:nonzero;stroke:none"
             d="m 0,0 c 23.449,0 42.458,-3.92 42.458,-8.755 0,-4.835 -19.009,-8.754 -42.458,-8.754 -23.449,0 -42.457,3.919 -42.457,8.754 C -42.457,-3.92 -23.449,0 0,0" /></g><g
           transform="translate(163.5298,678.2798)"
           id="g210"><path
             id="path212"
             style="fill:#ffa700;fill-opacity:1;fill-rule:nonzero;stroke:none"
             d="m 0,0 23.302,-18.601 23.302,-18.601 -27.76,-10.879 -27.76,-10.879 4.458,29.479 z" /></g><g
           transform="translate(592.0112,125.4717)"
           id="g214"><path
             id="path216"
             style="fill:#ffa700;fill-opacity:1;fill-rule:nonzero;stroke:none"
             d="m 0,0 11.651,-9.301 11.651,-9.3 -13.88,-5.44 -13.88,-5.439 2.229,14.74 z" /></g><g
           transform="translate(523.729,170.3652)"
           id="g218"><path
             id="path220"
             style="fill:#881f04;fill-opacity:1;fill-rule:nonzero;stroke:none"
             d="m 0,0 c 0,-9.945 -8.062,-18.007 -18.007,-18.007 -9.945,0 -18.007,8.062 -18.007,18.007 0,9.945 8.062,18.007 18.007,18.007 C -8.062,18.007 0,9.945 0,0" /></g><g
           transform="translate(395.8086,787.9614)"
           id="g222"><path
             id="path224"
             style="fill:#881f04;fill-opacity:1;fill-rule:nonzero;stroke:none"
             d="m 0,0 c 0,-4.973 -4.031,-9.004 -9.003,-9.004 -4.973,0 -9.004,4.031 -9.004,9.004 0,4.972 4.031,9.003 9.004,9.003 C -4.031,9.003 0,4.972 0,0" /></g><g
           transform="translate(868.332,592.0752)"
           id="g226"><path
             id="path228"
             style="fill:#ffa700;fill-opacity:1;fill-rule:nonzero;stroke:none"
             d="m 0,0 c 0,-10.482 -8.498,-18.98 -18.98,-18.98 -10.482,0 -18.98,8.498 -18.98,18.98 0,10.482 8.498,18.98 18.98,18.98 C -8.498,18.98 0,10.482 0,0" /></g><g
           transform="translate(1130.2109,207.7871)"
           id="g230"><path
             id="path232"
             style="fill:#ffa700;fill-opacity:1;fill-rule:nonzero;stroke:none"
             d="m 0,0 c 0,-6.445 -5.225,-11.67 -11.67,-11.67 -6.444,0 -11.67,5.225 -11.67,11.67 0,6.445 5.226,11.67 11.67,11.67 C -5.225,11.67 0,6.445 0,0" /></g><g
           transform="translate(780.7749,88.4404)"
           id="g234"><path
             id="path236"
             style="fill:#ffa700;fill-opacity:1;fill-rule:nonzero;stroke:none"
             d="m 0,0 c 0,-10.481 -8.498,-18.979 -18.98,-18.979 -10.482,0 -18.98,8.498 -18.98,18.979 0,10.482 8.498,18.98 18.98,18.98 C -8.498,18.98 0,10.482 0,0" /></g><g
           transform="translate(602.9536,582.8638)"
           id="g238"><path
             id="path240"
             style="fill:#807409;fill-opacity:1;fill-rule:nonzero;stroke:none"
             d="M 0,0 C 0,0 -13.739,33.438 -56.301,25.624 -42.109,6.163 -16.875,-5.913 0,0" /></g><g
           transform="translate(599.9785,598.4009)"
           id="g242"><path
             id="path244"
             style="fill:#807409;fill-opacity:1;fill-rule:nonzero;stroke:none"
             d="M 0,0 C 0,0 -11.379,34.729 16.721,56.217 28.238,30.881 0,0 0,0" /></g><g
           transform="translate(615.856,559.7388)"
           id="g246"><path
             id="path248"
             style="fill:#514402;fill-opacity:1;fill-rule:nonzero;stroke:none"
             d="m 0,0 c 0,0 -12.28,55.315 -48.943,86.854 l -3.018,-3.792 c 0,0 45.144,-39.274 40.317,-91.324 C -4.866,-3.597 0,0 0,0" /></g><g
           transform="translate(568.7935,641.5532)"
           id="g250"><path
             id="path252"
             style="fill:#807409;fill-opacity:1;fill-rule:nonzero;stroke:none"
             d="M 0,0 C 0,0 19.021,26.211 -42.176,54.063 -32.525,33.714 -33.019,27.438 -29.864,13.592 -26.71,-0.254 0,0 0,0" /></g><g
           transform="translate(568.7935,641.5532)"
           id="g254"><path
             id="path256"
             style="fill:#584d02;fill-opacity:1;fill-rule:nonzero;stroke:none"
             d="m 0,0 c -1.83,3.443 -3.651,6.826 -5.528,10.172 -1.899,3.332 -3.832,6.63 -5.894,9.841 -2.001,3.252 -4.199,6.367 -6.44,9.463 -2.226,3.119 -4.704,6.024 -7.138,9.087 3.183,-2.239 6.168,-4.829 8.751,-7.769 0.686,-0.704 1.309,-1.457 1.917,-2.224 0.608,-0.766 1.253,-1.508 1.832,-2.296 1.155,-1.581 2.283,-3.182 3.332,-4.833 C -7.1,18.121 -5.22,14.683 -3.671,11.098 -2.117,7.521 -0.793,3.828 0,0" /></g><g
           transform="translate(614.7583,642.8413)"
           id="g258"><path
             id="path260"
             style="fill:#584d02;fill-opacity:1;fill-rule:nonzero;stroke:none"
             d="m 0,0 c -0.208,-3.955 -0.812,-7.857 -1.576,-11.721 -0.761,-3.868 -1.735,-7.691 -2.893,-11.465 -1.214,-3.756 -2.515,-7.495 -4.212,-11.08 -1.675,-3.584 -3.605,-7.092 -6.099,-10.174 1.536,3.648 2.877,7.285 4.167,10.953 0.301,0.925 0.612,1.845 0.943,2.757 l 0.893,2.775 c 0.612,1.843 1.2,3.697 1.759,5.56 l 0.88,2.783 c 0.281,0.933 0.541,1.871 0.84,2.799 l 1.71,5.597 C -2.451,-7.477 -1.291,-3.739 0,0" /></g><g
           transform="translate(602.9536,582.8638)"
           id="g262"><path
             id="path264"
             style="fill:#584d02;fill-opacity:1;fill-rule:nonzero;stroke:none"
             d="m 0,0 -10.602,6.438 c -1.772,1.042 -3.532,2.095 -5.322,3.092 -0.901,0.487 -1.782,1.008 -2.673,1.51 l -2.713,1.427 c -0.888,0.508 -1.812,0.938 -2.72,1.401 -0.91,0.462 -1.824,0.917 -2.755,1.326 -0.923,0.426 -1.841,0.874 -2.773,1.285 -0.946,0.37 -1.884,0.762 -2.822,1.166 -3.798,1.468 -7.668,2.712 -11.774,3.505 4.175,0.323 8.406,-0.389 12.448,-1.535 4.066,-1.137 7.902,-2.893 11.637,-4.786 3.711,-1.95 7.247,-4.195 10.613,-6.66 C -6.096,5.699 -2.869,3.039 0,0" /></g><g
           transform="translate(725.4941,647.3926)"
           id="g266"><path
             id="path268"
             style="fill:#514402;fill-opacity:1;fill-rule:nonzero;stroke:none"
             d="m 0,0 c 0,0 -32.502,-17.496 -55.033,-34.365 l 5.113,11.234 c 0,0 28.339,12.798 46.287,33.18 C 4.191,14.883 0,0 0,0" /></g><g
           transform="translate(722.0654,789.3857)"
           id="g270"><path
             id="path272"
             style="fill:#6a5d05;fill-opacity:1;fill-rule:nonzero;stroke:none"
             d="m 0,0 c 0,0 4.008,-24.724 -16.244,-69.752 -20.251,-45.03 -38.224,-93.033 -69.031,-124.54 -30.808,-31.507 -105.204,-122.606 -108.445,-185.064 l 23.199,-8.623 c 0,0 13.781,99.315 100.863,182.705 33.647,34.088 58.347,113.903 77.992,148.552 19.645,34.65 26.435,43.184 26.435,43.184 z" /></g><g
           transform="translate(705.8218,719.6333)"
           id="g274"><path
             id="path276"
             style="fill:#514402;fill-opacity:1;fill-rule:nonzero;stroke:none"
             d="m 0,0 c -2.644,-5.877 -5.248,-11.805 -7.846,-17.741 v 0.001 C 3.723,7.856 20.82,20.772 32.625,27.011 46.116,50.058 51.013,56.215 51.013,56.215 L 16.244,69.752 C 16.244,69.752 20.252,45.029 0,0" /></g><g
           transform="translate(771.1343,778.8892)"
           id="g278"><path
             id="path280"
             style="fill:#6a5d05;fill-opacity:1;fill-rule:nonzero;stroke:none"
             d="M 0,0 C 0,0 41.262,16.876 78.802,-9.896 49.414,-26.227 17.404,-17.099 0,0" /></g><g
           transform="translate(771.1343,778.8892)"
           id="g282"><path
             id="path284"
             style="fill:#514402;fill-opacity:1;fill-rule:nonzero;stroke:none"
             d="M 0,0 C 6.912,-6.79 16.147,-12.283 26.586,-15.464 35.548,-9.725 41.739,-2.419 45.837,3.925 20.552,8.385 0,0 0,0" /></g><g
           transform="translate(740.3398,766.5645)"
           id="g286"><path
             id="path288"
             style="fill:#807409;fill-opacity:1;fill-rule:nonzero;stroke:none"
             d="m 0,0 c 0,0 24.545,-16.66 44.309,-39.216 19.762,-22.557 70.482,-6.893 70.482,-6.893 0,0 -33.999,6.271 -70.279,49.422 C 21.759,32.557 0,0 0,0" /></g><g
           transform="translate(784.8516,769.8774)"
           id="g290"><path
             id="path292"
             style="fill:#6a5d05;fill-opacity:1;fill-rule:nonzero;stroke:none"
             d="m 0,0 c -22.752,29.244 -44.512,-3.313 -44.512,-3.313 0,0 7.158,-4.861 16.851,-12.879 14.845,-0.807 26.607,2.23 35.85,7.031 C 5.48,-6.302 2.749,-3.269 0,0" /></g><g
           transform="translate(720.5952,807.1938)"
           id="g294"><path
             id="path296"
             style="fill:#6a5d05;fill-opacity:1;fill-rule:nonzero;stroke:none"
             d="M 0,0 C 0,0 -17.293,38.331 -51.92,45.964 -54.309,27.946 -35.725,-11.509 0,0" /></g><g
           transform="translate(720.5952,807.1938)"
           id="g298"><path
             id="path300"
             style="fill:#514402;fill-opacity:1;fill-rule:nonzero;stroke:none"
             d="M 0,0 C 0,0 -9.507,21.042 -28.517,35.05 -29.029,26.924 -28.999,14.264 -25.85,0.717 -18.627,-2.447 -9.984,-3.216 0,0" /></g><g
           transform="translate(730.8721,770.873)"
           id="g302"><path
             id="path304"
             style="fill:#807409;fill-opacity:1;fill-rule:nonzero;stroke:none"
             d="m 0,0 c 0,0 -32.113,17.845 -59.208,17.907 -27.095,0.061 -41.186,32.952 -42.788,40.784 22.223,-17.863 58.18,1.579 83.168,-30.102 C 0.959,5.376 0,0 0,0" /></g><g
           transform="translate(712.0439,799.4614)"
           id="g306"><path
             id="path308"
             style="fill:#6a5d05;fill-opacity:1;fill-rule:nonzero;stroke:none"
             d="m 0,0 c -5.71,7.24 -11.997,11.791 -18.558,14.747 1.759,-10.398 5.217,-21.683 11.632,-32.074 14.652,-5.095 25.754,-11.261 25.754,-11.261 0,0 0.959,5.376 -18.828,28.588" /></g><g
           transform="translate(762.3462,932.6875)"
           id="g310"><path
             id="path312"
             style="fill:#881f04;fill-opacity:1;fill-rule:nonzero;stroke:none"
             d="m 0,0 c 0,0 52.061,18.443 74.297,-29.456 -7.732,-5.199 -58.477,1.429 -58.477,1.429 z" /></g><g
           transform="translate(759.4243,926.2676)"
           id="g314"><path
             id="path316"
             style="fill:#671202;fill-opacity:1;fill-rule:nonzero;stroke:none"
             d="M 0,0 C 0,0 55.966,6.959 68.832,-26.484 50.001,-34.866 8.875,-27.772 8.875,-27.772 Z" /></g><g
           transform="translate(767.8433,912.3027)"
           id="g318"><path
             id="path320"
             style="fill:#881f04;fill-opacity:1;fill-rule:nonzero;stroke:none"
             d="m 0,0 c 0,0 42.216,-10.75 71.052,-4.124 16.719,2.736 -8.446,-31.894 -8.446,-31.894 l -50.935,-0.329 z" /></g><g
           transform="translate(798.4561,888.6455)"
           id="g322"><path
             id="path324"
             style="fill:#a82d08;fill-opacity:1;fill-rule:nonzero;stroke:none"
             d="m 0,0 c 0,0 -17.509,21.455 -27.062,41.791 -9.554,20.336 -24.227,2.562 -32.882,-22.654 -8.655,-25.215 34.614,-56.194 34.614,-56.194 z" /></g><g
           transform="translate(754.4287,860.0986)"
           id="g326"><path
             id="path328"
             style="fill:#a82d08;fill-opacity:1;fill-rule:nonzero;stroke:none"
             d="m 0,0 c 0,0 23.467,39.164 53.078,36.033 29.61,-3.131 38.25,-8.944 24.991,-33.946 -13.26,-25 -69.324,-84.126 -69.324,-84.126 l -22.834,-11.495 c 0,0 -12.715,40.841 14.089,93.534" /></g><g
           transform="translate(737.731,782.2563)"
           id="g330"><path
             id="path332"
             style="fill:#881f04;fill-opacity:1;fill-rule:nonzero;stroke:none"
             d="m 0,0 c 1.303,6.969 4.685,19.099 13.468,34.419 17.343,27.464 25.38,50.444 12.718,72.19 C 18.48,119.843 13.628,136.235 10.999,147.067 7.202,141.456 3.659,133.909 0.782,125.526 -4.292,110.745 8.476,93.991 19.913,82.65 17.832,79.734 16.698,77.842 16.698,77.842 -0.058,44.903 -1.37,16.594 0,0" /></g><g
           transform="translate(793.7627,894.6958)"
           id="g334"><path
             id="path336"
             style="fill:#671202;fill-opacity:1;fill-rule:nonzero;stroke:none"
             d="m 0,0 c -1.761,-0.516 -3.425,-1.198 -5.033,-1.985 -1.624,-0.744 -3.158,-1.659 -4.677,-2.567 -3.006,-1.884 -5.822,-4.042 -8.471,-6.396 l -1.987,-1.773 -1.882,-1.891 c -1.329,-1.195 -2.423,-2.615 -3.694,-3.884 -0.637,-0.635 -1.156,-1.37 -1.762,-2.037 l -1.783,-2.04 c -1.142,-1.401 -2.265,-2.825 -3.509,-4.193 0.737,1.677 1.578,3.309 2.433,4.942 0.976,1.55 1.91,3.146 2.999,4.634 2.187,2.968 4.613,5.795 7.419,8.242 2.81,2.427 5.867,4.617 9.242,6.217 1.686,0.797 3.421,1.488 5.22,1.969 C -3.691,-0.293 -1.847,0.068 0,0" /></g><g
           transform="translate(835.6807,907.5249)"
           id="g338"><path
             id="path340"
             style="fill:#671202;fill-opacity:1;fill-rule:nonzero;stroke:none"
             d="m 0,0 c -1.622,-0.917 -3.383,-1.435 -5.155,-1.817 -1.777,-0.366 -3.587,-0.55 -5.399,-0.55 -1.812,-0.007 -3.627,0.152 -5.406,0.522 -1.78,0.356 -3.528,0.926 -5.163,1.792 1.85,0.232 3.602,0.228 5.354,0.299 l 5.206,0.056 5.211,-0.037 C -3.598,0.219 -1.842,0.174 0,0" /></g><g
           transform="translate(832.4976,862.187)"
           id="g342"><path
             id="path344"
             style="fill:#881f04;fill-opacity:1;fill-rule:nonzero;stroke:none"
             d="M 0,0 C 2.164,4.08 3.733,7.641 4.735,10.771 -14.723,13.113 -64.689,8.086 -92.158,-95.623 l 22.834,11.496 c 0,0 56.064,59.126 69.324,84.127" /></g><g
           transform="translate(740.3398,766.5645)"
           id="g346"><path
             id="path348"
             style="fill:#c64211;fill-opacity:1;fill-rule:nonzero;stroke:none"
             d="M 0,0 C 0,0 37.612,122.372 113.777,96.749 90.52,85.376 84.278,54.636 74.443,35.864 64.608,17.092 41.632,-16.365 0,0" /></g><g
           transform="translate(740.3398,766.5645)"
           id="g350"><path
             id="path352"
             style="fill:#c64211;fill-opacity:1;fill-rule:nonzero;stroke:none"
             d="m 0,0 c 0,0 0.605,43.243 16.417,71.785 15.811,28.541 5.333,42.715 -4.86,59.58 C 1.364,148.23 1.159,164.312 0.949,170.05 0.74,175.788 -20.741,145.124 -31.952,106.024 -43.164,66.925 -38.267,12.457 0,0" /></g><g
           transform="translate(720.1982,712.1187)"
           id="g354"><path
             id="path356"
             style="fill:#807409;fill-opacity:1;fill-rule:nonzero;stroke:none"
             d="m 0,0 -0.001,0.002 c 0,0 -18.503,-25.482 -30.731,-47.039 -12.229,-21.557 -23.879,-58.878 -56.86,-90.363 -12.064,-11.517 -20.594,-28.396 -26.576,-45.173 12.502,18.166 27.751,36.728 46.377,54.566 C -39.719,-99.566 -17.876,-39.313 0,0" /></g><g
           transform="translate(711.5679,643.3984)"
           id="g358"><path
             id="path360"
             style="fill:#807409;fill-opacity:1;fill-rule:nonzero;stroke:none"
             d="m 0,0 c 0,0 15.648,43.25 51.594,38.514 35.946,-4.736 49.91,1.824 49.91,1.824 C 101.504,40.338 60.678,-37.304 0,0" /></g><g
           transform="translate(796.042,674.6968)"
           id="g362"><path
             id="path364"
             style="fill:#584d02;fill-opacity:1;fill-rule:nonzero;stroke:none"
             d="m 0,0 c -6.928,-3.311 -14.157,-5.979 -21.509,-8.227 -3.667,-1.164 -7.4,-2.103 -11.138,-3.03 -3.755,-0.854 -7.533,-1.628 -11.344,-2.231 l -2.862,-0.429 -2.87,-0.339 c -1.948,-0.193 -3.742,-0.531 -5.588,-0.797 -3.662,-0.71 -7.236,-1.84 -10.693,-3.291 -3.444,-1.479 -6.753,-3.323 -9.842,-5.508 -3.092,-2.178 -6.024,-4.631 -8.628,-7.446 2.147,3.193 4.892,5.965 7.83,8.486 2.976,2.486 6.249,4.649 9.765,6.358 3.501,1.746 7.243,2.984 11.067,3.879 1.933,0.343 3.906,0.696 5.766,0.907 l 2.827,0.365 2.812,0.45 c 7.506,1.153 14.947,2.781 22.343,4.625 C -14.668,-4.375 -7.324,-2.28 0,0" /></g><g
           transform="translate(584.8579,508.9531)"
           id="g366"><path
             id="path368"
             style="fill:#514402;fill-opacity:1;fill-rule:nonzero;stroke:none"
             d="m 0,0 c 0,0 60.181,15.752 108.326,-30.391 l -2.539,-2.981 c 0,0 -46.785,43.159 -110.02,24.069 C -5.981,-4.962 0,0 0,0" /></g><g
           transform="translate(687.9824,483.2725)"
           id="g370"><path
             id="path372"
             style="fill:#807409;fill-opacity:1;fill-rule:nonzero;stroke:none"
             d="M 0,0 C 0,0 49.674,-3.084 34.817,-70.787 21.068,-56.847 -14.211,-31.967 0,0" /></g><g
           transform="translate(687.9824,483.2725)"
           id="g374"><path
             id="path376"
             style="fill:#584d02;fill-opacity:1;fill-rule:nonzero;stroke:none"
             d="m 0,0 c 4.856,-2.152 9.256,-5.291 13.224,-8.868 3.974,-3.59 7.417,-7.778 10.285,-12.335 1.383,-2.312 2.628,-4.704 3.705,-7.172 1.008,-2.497 1.914,-5.036 2.543,-7.648 1.285,-5.213 1.722,-10.613 1.241,-15.887 -0.633,5.26 -1.638,10.389 -3.243,15.311 -1.635,4.912 -3.803,9.613 -6.517,13.996 -2.704,4.388 -5.907,8.471 -9.466,12.251 C 8.182,-6.599 4.285,-3.101 0,0" /></g><g
           transform="translate(528.3457,410.0293)"
           id="g378"><path
             id="path380"
             style="fill:#514402;fill-opacity:1;fill-rule:nonzero;stroke:none"
             d="m 0,0 23.199,-8.621 c 0,0 1.154,8.239 4.846,21.92 C 6.155,34.94 39.597,97.412 40.033,98.223 18.888,65.28 1.528,29.456 0,0" /></g><g
           transform="translate(528.3457,410.0293)"
           id="g382"><path
             id="path384"
             style="fill:#6a5d05;fill-opacity:1;fill-rule:nonzero;stroke:none"
             d="M 0,0 C 0,0 16.09,2.363 23.199,-8.621 21.19,-13.035 8.824,-9.345 0,0" /></g><g
           id="g386"><g
             id="g388" /><g
             id="g400"><g
               style="opacity:0.41000402"
               id="g398"
               clip-path="url(#clipPath392)"><g
                 id="g396"
                 transform="translate(715.5015,785.9072)"><path
                   id="path394"
                   style="fill:#ffffff;fill-opacity:1;fill-rule:nonzero;stroke:none"
                   d="M 0,0 C 28.854,49.096 16.768,100.023 7.716,124.719 2.427,114.061 -3.026,100.938 -7.114,86.682 -15.156,58.635 -14.906,22.684 0,0" /></g></g></g></g><g
           id="g402"><g
             id="g404" /><g
             id="g416"><g
               style="opacity:0.41000402"
               id="g414"
               clip-path="url(#clipPath408)"><g
                 id="g412"
                 transform="translate(814.7832,802.4287)"><path
                   id="path410"
                   style="fill:#ffffff;fill-opacity:1;fill-rule:nonzero;stroke:none"
                   d="m 0,0 c 9.835,18.772 16.076,49.512 39.333,60.884 0,0 -28.332,-5.048 -46.899,-44.294 C -26.133,-22.656 -43.362,-40.646 -74.443,-35.864 -32.812,-52.229 -9.835,-18.772 0,0" /></g></g></g></g><g
           transform="translate(322.0093,675.8047)"
           id="g418"><path
             id="path420"
             style="fill:#be6b00;fill-opacity:1;fill-rule:nonzero;stroke:none"
             d="m 0,0 17.433,27.308 c 0,0 40.856,38.897 124.254,-2.444 83.398,-41.342 115.709,-44.58 115.709,-44.58 0,0 -126.781,-140.539 -257.396,19.716" /></g><g
           transform="translate(324.1577,679.1704)"
           id="g422"><path
             id="path424"
             style="fill:#ffa700;fill-opacity:1;fill-rule:nonzero;stroke:none"
             d="m 0,0 16.862,26.414 c 0,0 39.755,37.47 122.05,-3.557 82.295,-41.027 116.336,-45.939 116.336,-45.939 0,0 -125.456,-134.129 -255.248,23.082" /></g><g
           transform="translate(363.7651,681.0874)"
           id="g426"><path
             id="path428"
             style="fill:#860b02;fill-opacity:1;fill-rule:nonzero;stroke:none"
             d="M 0,0 C 0,0 62.595,39.063 136.079,-37.943 79.845,-65.779 27.589,-39.096 0,0" /></g><g
           transform="translate(380.3462,674.2832)"
           id="g430"><path
             id="path432"
             style="fill:#470909;fill-opacity:1;fill-rule:nonzero;stroke:none"
             d="M 0,0 C 0,0 47.97,19.833 100.872,-26.331 69.875,-37.524 31.484,-32.492 0,0" /></g><g
           transform="translate(542.6792,627.5078)"
           id="g434"><path
             id="path436"
             style="fill:#c64211;fill-opacity:1;fill-rule:nonzero;stroke:none"
             d="m 0,0 c 23.023,13.938 36.727,28.581 36.727,28.581 0,0 -24.019,3.473 -80.44,28.876 h -0.007 c 0,0 30.941,-19.994 45.125,-25.507 C -18.418,15.688 -43.313,3.498 -57.892,-1.775 -38.316,-3.479 -15.232,-1.688 0,0" /></g><g
           transform="translate(357.7021,715.1792)"
           id="g438"><path
             id="path440"
             style="fill:#c64211;fill-opacity:1;fill-rule:nonzero;stroke:none"
             d="m 0,0 c 18.42,-15.414 49.806,-1.583 49.806,-1.583 0,0 -12.678,-7.84 1.355,-12.667 14.032,-4.828 29.841,-0.4 29.841,-0.4 0,0 -8.414,-8.558 7.912,-10.718 16.324,-2.16 28.365,6.366 28.365,6.366 l 0.002,0.005 c -3.864,1.87 -7.812,3.8 -11.914,5.846 C 53.709,12.602 18.823,7.424 0,0" /></g><g
           transform="translate(483.583,676.54)"
           id="g442"><path
             id="path444"
             style="fill:#860b02;fill-opacity:1;fill-rule:nonzero;stroke:none"
             d="M 0,0 C -1.404,-2.2 -4.326,-2.845 -6.525,-1.441 -8.726,-0.036 -9.37,2.885 -7.966,5.085 -6.562,7.284 -3.64,7.93 -1.44,6.525 0.76,5.121 1.404,2.199 0,0" /></g><g
           transform="translate(511.4062,658.188)"
           id="g446"><path
             id="path448"
             style="fill:#860b02;fill-opacity:1;fill-rule:nonzero;stroke:none"
             d="m 0,0 c -2.143,-3.357 -6.603,-4.342 -9.96,-2.199 -3.357,2.144 -4.342,6.603 -2.199,9.961 2.144,3.357 6.603,4.342 9.961,2.198 C 1.159,7.817 2.144,3.357 0,0" /></g><g
           transform="translate(350.5278,711.9023)"
           id="g450"><path
             id="path452"
             style="fill:#c64211;fill-opacity:1;fill-rule:nonzero;stroke:none"
             d="M 0,0 C -6.359,-3.351 -9.508,-6.318 -9.508,-6.318 L -26.37,-32.732 C -3.337,-60.631 19.556,-79.319 41.638,-91.246 -24.149,-46.834 -0.002,-0.005 0,0" /></g><g
           transform="translate(468.6733,614.3574)"
           id="g454"><path
             id="path456"
             style="fill:#860b02;fill-opacity:1;fill-rule:nonzero;stroke:none"
             d="m 0,0 c -1.626,-2.547 -5.009,-3.294 -7.556,-1.668 -2.548,1.626 -3.294,5.009 -1.668,7.556 1.626,2.547 5.009,3.294 7.556,1.668 C 0.879,5.93 1.626,2.546 0,0" /></g><g
           transform="translate(443.3086,617.5664)"
           id="g458"><path
             id="path460"
             style="fill:#860b02;fill-opacity:1;fill-rule:nonzero;stroke:none"
             d="m 0,0 c -1.626,-2.547 -5.009,-3.293 -7.556,-1.668 -2.547,1.626 -3.294,5.009 -1.668,7.556 1.626,2.547 5.009,3.294 7.556,1.668 C 0.88,5.93 1.625,2.547 0,0" /></g><g
           transform="translate(418.4976,623.5132)"
           id="g462"><path
             id="path464"
             style="fill:#860b02;fill-opacity:1;fill-rule:nonzero;stroke:none"
             d="m 0,0 c -1.626,-2.547 -5.008,-3.294 -7.556,-1.667 -2.548,1.625 -3.294,5.008 -1.668,7.555 1.626,2.548 5.009,3.294 7.556,1.668 C 0.879,5.93 1.626,2.547 0,0" /></g><g
           transform="translate(394.9478,635.4556)"
           id="g466"><path
             id="path468"
             style="fill:#860b02;fill-opacity:1;fill-rule:nonzero;stroke:none"
             d="m 0,0 c -1.625,-2.547 -5.009,-3.294 -7.556,-1.668 -2.547,1.626 -3.294,5.009 -1.668,7.556 1.626,2.547 5.01,3.294 7.557,1.668 C 0.88,5.93 1.626,2.546 0,0" /></g><g
           transform="translate(561.5425,660.6338)"
           id="g470"><path
             id="path472"
             style="fill:#f2ecd6;fill-opacity:1;fill-rule:nonzero;stroke:none"
             d="m 0,0 c -2.909,-2.878 -6.009,-5.557 -9.181,-8.146 -3.175,-2.586 -6.461,-5.039 -9.828,-7.385 -3.396,-2.303 -6.867,-4.511 -10.475,-6.501 -3.614,-1.98 -7.359,-3.742 -11.246,-5.199 l -0.411,2.115 c 2.823,0.054 5.647,0.035 8.47,0.056 2.822,0.021 5.647,-0.023 8.47,-0.032 2.824,-0.044 5.647,-0.067 8.471,-0.15 2.823,-0.065 5.647,-0.165 8.469,-0.304 -2.818,-0.25 -5.636,-0.46 -8.454,-0.635 -2.818,-0.194 -5.636,-0.326 -8.454,-0.481 -2.818,-0.118 -5.635,-0.273 -8.454,-0.362 -2.818,-0.089 -5.635,-0.218 -8.455,-0.274 l -6.181,-0.123 5.771,2.237 c 3.742,1.452 7.369,3.218 10.947,5.093 3.543,1.947 7.038,4 10.467,6.171 C -13.219,-9.566 -6.567,-4.868 0,0" /></g><g
           transform="translate(341.0195,705.584)"
           id="g474"><path
             id="path476"
             style="fill:#f2ecd6;fill-opacity:1;fill-rule:nonzero;stroke:none"
             d="m 0,0 c -0.616,-3.889 -1.169,-7.747 -1.625,-11.607 -0.202,-1.933 -0.43,-3.858 -0.563,-5.789 -0.162,-1.929 -0.29,-3.858 -0.326,-5.787 -0.079,-1.927 -0.086,-3.856 -0.007,-5.776 0.043,-1.924 0.197,-3.842 0.417,-5.75 0.453,-3.82 1.313,-7.582 2.779,-11.243 -2.301,3.215 -3.726,7.058 -4.518,10.957 -0.823,3.912 -1.036,7.918 -0.927,11.884 0.14,3.969 0.621,7.91 1.411,11.781 C -2.566,-7.463 -1.518,-3.644 0,0" /></g><g
           transform="translate(380.3462,674.2832)"
           id="g478"><path
             id="path480"
             style="fill:#be6b00;fill-opacity:1;fill-rule:nonzero;stroke:none"
             d="m 0,0 c 0.54,-0.558 1.088,-1.088 1.633,-1.63 11.767,2.838 53.979,9.56 95.515,-25.945 1.251,0.392 2.496,0.801 3.725,1.244 C 47.97,19.833 0,0 0,0" /></g><g
           transform="translate(322.0093,675.8047)"
           id="g482"><path
             id="path484"
             style="fill:#be6b00;fill-opacity:1;fill-rule:nonzero;stroke:none"
             d="m 0,0 17.434,27.308 c 0,0 18.084,53.433 -54.523,111.68 -72.606,58.247 -89.145,86.193 -89.145,86.193 0,0 -74.112,-174.16 126.234,-225.181" /></g><g
           transform="translate(324.1577,679.1704)"
           id="g486"><path
             id="path488"
             style="fill:#ffa700;fill-opacity:1;fill-rule:nonzero;stroke:none"
             d="m 0,0 16.862,26.414 c 0,0 17.255,51.834 -54.602,109.212 -71.856,57.378 -90.643,86.189 -90.643,86.189 0,0 -68.855,-170.26 128.383,-221.815" /></g><g
           transform="translate(309.2246,715.9048)"
           id="g490"><path
             id="path492"
             style="fill:#860b02;fill-opacity:1;fill-rule:nonzero;stroke:none"
             d="M 0,0 C 0,0 9.084,73.222 -91.699,107.463 -93.277,44.737 -47.077,8.568 0,0" /></g><g
           transform="translate(296.0732,728.0801)"
           id="g494"><path
             id="path496"
             style="fill:#470909;fill-opacity:1;fill-rule:nonzero;stroke:none"
             d="M 0,0 C 0,0 -2.203,51.862 -66.346,80.417 -63.453,47.588 -42.726,14.883 0,0" /></g><g
           transform="translate(185.3101,855.6406)"
           id="g498"><path
             id="path500"
             style="fill:#c64211;fill-opacity:1;fill-rule:nonzero;stroke:none"
             d="m 0,0 c 2.952,26.752 10.465,45.345 10.465,45.345 0,0 13.262,-20.324 60.055,-60.81 l 0.003,-0.007 c 0,0 -31.161,19.651 -42.133,30.195 C 21.984,-10.103 21.406,-37.816 22.759,-53.261 12.974,-36.22 4.881,-14.527 0,0" /></g><g
           transform="translate(342.7007,724.7554)"
           id="g502"><path
             id="path504"
             style="fill:#c64211;fill-opacity:1;fill-rule:nonzero;stroke:none"
             d="m 0,0 c -21.735,10.221 -22.4,44.512 -22.4,44.512 0,0 -1.777,-14.8 -12.062,-4.103 -10.286,10.696 -12.924,26.901 -12.924,26.901 0,0 -4.221,-11.235 -13.052,2.664 -8.832,13.899 -6.166,28.409 -6.166,28.409 l 0.003,0.005 c 3.323,-2.718 6.736,-5.487 10.318,-8.346 C -11.177,54.024 -1.189,20.199 0,0" /></g><g
           transform="translate(254.6626,822.6753)"
           id="g506"><path
             id="path508"
             style="fill:#860b02;fill-opacity:1;fill-rule:nonzero;stroke:none"
             d="m 0,0 c -1.404,-2.2 -0.76,-5.121 1.44,-6.525 2.2,-1.405 5.122,-0.76 6.526,1.44 C 9.37,-2.886 8.726,0.036 6.525,1.44 4.326,2.845 1.404,2.2 0,0" /></g><g
           transform="translate(226.3037,840.1885)"
           id="g510"><path
             id="path512"
             style="fill:#860b02;fill-opacity:1;fill-rule:nonzero;stroke:none"
             d="m 0,0 c -2.144,-3.357 -1.159,-7.817 2.199,-9.96 3.357,-2.144 7.816,-1.16 9.96,2.198 2.143,3.358 1.158,7.817 -2.199,9.961 C 6.603,4.342 2.144,3.357 0,0" /></g><g
           transform="translate(342.7485,716.8687)"
           id="g514"><path
             id="path516"
             style="fill:#c64211;fill-opacity:1;fill-rule:nonzero;stroke:none"
             d="M 0,0 C -0.362,-7.179 -1.729,-11.285 -1.729,-11.285 L -18.591,-37.698 C -53.593,-28.55 -80.181,-15.65 -100.295,-0.64 -32.316,-41.619 -0.003,-0.005 0,0" /></g><g
           transform="translate(204.5337,782.9756)"
           id="g518"><path
             id="path520"
             style="fill:#860b02;fill-opacity:1;fill-rule:nonzero;stroke:none"
             d="m 0,0 c -1.626,-2.547 -0.879,-5.93 1.668,-7.557 2.547,-1.625 5.93,-0.879 7.557,1.668 1.625,2.548 0.879,5.931 -1.668,7.557 C 5.009,3.293 1.626,2.547 0,0" /></g><g
           transform="translate(218.1221,761.3188)"
           id="g522"><path
             id="path524"
             style="fill:#860b02;fill-opacity:1;fill-rule:nonzero;stroke:none"
             d="M 0,0 C -1.626,-2.547 -0.879,-5.931 1.667,-7.557 4.215,-9.183 7.598,-8.436 9.224,-5.889 10.85,-3.342 10.103,0.042 7.556,1.667 5.009,3.293 1.626,2.546 0,0" /></g><g
           transform="translate(233.9604,741.3159)"
           id="g526"><path
             id="path528"
             style="fill:#860b02;fill-opacity:1;fill-rule:nonzero;stroke:none"
             d="m 0,0 c -1.626,-2.547 -0.879,-5.93 1.667,-7.556 2.548,-1.626 5.931,-0.879 7.557,1.668 1.626,2.547 0.879,5.93 -1.668,7.556 C 5.009,3.293 1.626,2.547 0,0" /></g><g
           transform="translate(254.7061,724.9819)"
           id="g530"><path
             id="path532"
             style="fill:#860b02;fill-opacity:1;fill-rule:nonzero;stroke:none"
             d="m 0,0 c -1.626,-2.548 -0.879,-5.93 1.668,-7.557 2.547,-1.625 5.93,-0.879 7.556,1.668 1.626,2.548 0.88,5.931 -1.668,7.556 C 5.009,3.293 1.626,2.546 0,0" /></g><g
           transform="translate(207.418,886.6963)"
           id="g534"><path
             id="path536"
             style="fill:#f2ecd6;fill-opacity:1;fill-rule:nonzero;stroke:none"
             d="m 0,0 c -1.651,-8.007 -3.113,-16.018 -4.177,-24.069 -0.526,-4.024 -0.917,-8.058 -1.192,-12.091 -0.194,-4.035 -0.27,-8.069 -0.011,-12.074 l 0.399,-6.178 -2.49,5.66 c -1.135,2.581 -2.204,5.19 -3.31,7.784 -1.105,2.594 -2.151,5.215 -3.23,7.821 -1.046,2.621 -2.112,5.233 -3.122,7.871 -1.027,2.63 -2.023,5.274 -2.983,7.936 1.315,-2.502 2.594,-5.021 3.841,-7.555 1.264,-2.526 2.473,-5.077 3.702,-7.62 1.196,-2.557 2.425,-5.101 3.594,-7.67 1.169,-2.57 2.375,-5.124 3.514,-7.707 l -2.091,-0.517 c -0.315,4.139 -0.293,8.278 -0.018,12.39 0.287,4.11 0.828,8.188 1.487,12.238 0.712,4.042 1.553,8.055 2.563,12.024 C -2.511,-7.79 -1.386,-3.851 0,0" /></g><g
           transform="translate(341.0195,705.584)"
           id="g538"><path
             id="path540"
             style="fill:#f2ecd6;fill-opacity:1;fill-rule:nonzero;stroke:none"
             d="m 0,0 c -2.666,-2.911 -5.69,-5.47 -8.864,-7.816 -3.178,-2.346 -6.551,-4.442 -10.092,-6.24 -3.551,-1.767 -7.275,-3.26 -11.169,-4.161 -3.871,-0.923 -7.957,-1.248 -11.842,-0.513 3.939,0.211 7.713,1.014 11.368,2.211 1.824,0.603 3.628,1.272 5.391,2.041 1.776,0.738 3.522,1.556 5.237,2.439 1.735,0.845 3.43,1.773 5.112,2.731 1.696,0.934 3.346,1.951 5.014,2.948 3.31,2.039 6.576,4.164 9.845,6.36" /></g><g
           transform="translate(296.0732,728.0801)"
           id="g542"><path
             id="path544"
             style="fill:#be6b00;fill-opacity:1;fill-rule:nonzero;stroke:none"
             d="m 0,0 c -0.734,0.256 -1.446,0.53 -2.167,0.795 -2.379,11.87 -14.05,52.989 -63.74,75.721 -0.171,1.299 -0.324,2.599 -0.44,3.901 C -2.203,51.862 0,0 0,0" /></g><g
           transform="translate(324.1577,679.1704)"
           id="g546"><path
             id="path548"
             style="fill:#860b02;fill-opacity:1;fill-rule:nonzero;stroke:none"
             d="m 0,0 c 1.011,2.453 2.21,4.785 3.475,7.076 1.254,2.298 2.618,4.525 4.004,6.738 1.422,2.191 2.868,4.366 4.424,6.471 1.545,2.111 3.157,4.18 4.959,6.129 C 15.853,23.959 14.655,21.626 13.389,19.336 12.135,17.038 10.771,14.811 9.382,12.6 7.958,10.41 6.513,8.235 4.956,6.131 3.41,4.019 1.799,1.95 0,0" /></g><g
           transform="translate(739.6812,379.6973)"
           id="g550"><path
             id="path552"
             style="fill:#c64211;fill-opacity:1;fill-rule:nonzero;stroke:none"
             d="m 0,0 c 0,0 67.564,25.662 160.422,-25.739 92.857,-51.404 155.713,-61.164 168.571,14.43 7.142,45.595 -45.714,81.484 -67.143,84.968 20,22.055 67.801,16.341 67.801,16.341 l 5.056,61.429 c 0,0 134.286,-100.902 37.143,-217.594 -84.286,-83.834 -157.142,-44.698 -238.571,-12.838 -81.428,31.86 -128.571,0 -128.571,0 z" /></g><g
           transform="translate(988.9014,316.4531)"
           id="g554"><path
             id="path556"
             style="fill:#881f04;fill-opacity:1;fill-rule:nonzero;stroke:none"
             d="m 0,0 0.005,-0.012 c 0,0 79.261,-28.864 137.315,17.35 67.199,107.87 -51.833,197.335 -51.833,197.335 l -5.056,-61.429 c 0,0 -47.801,5.714 -67.801,-16.341 C 34.059,133.419 86.915,97.53 79.772,51.936 71.615,3.972 43.306,-9.595 0,0" /></g><g
           transform="translate(905.6289,287.6758)"
           id="g558"><path
             id="path560"
             style="fill:#691302;fill-opacity:1;fill-rule:nonzero;stroke:none"
             d="M 0,0 C 13.184,16.322 22.878,34.682 29.12,48.478 18.101,53.653 6.557,59.594 -5.526,66.282 -76.796,105.734 -133.125,99.79 -155.483,94.894 l -6.252,-73.561 0.496,-8.314 c 0,0 47.142,31.86 128.571,0 C -21.637,8.702 -10.767,4.26 0,0" /></g><g
           transform="translate(283.6191,499.8672)"
           id="g562"><path
             id="path564"
             style="fill:#881f04;fill-opacity:1;fill-rule:nonzero;stroke:none"
             d="m 0,0 c 0,0 -190.863,-106.732 -101.71,-180.818 43.948,-27.624 129.335,-81.619 45.204,-154.449 -48.971,-43.948 -114.267,-51.482 -114.267,-51.482 l 23.858,56.505 -64.04,37.671 c 0,0 70.319,0 110.5,59.016 -76.596,6.279 -163.237,190.864 92.921,297.597 C 10.045,40.182 0,0 0,0" /></g><g
           transform="translate(276.085,563.9067)"
           id="g566"><path
             id="path568"
             style="fill:#691302;fill-opacity:1;fill-rule:nonzero;stroke:none"
             d="m 0,0 c -27.203,-11.334 -50.503,-23.553 -70.397,-36.336 1.641,-20.551 5.614,-45.654 14.324,-71.77 31.652,26.191 63.607,44.066 63.607,44.066 0,0 10.045,40.183 -7.534,64.04" /></g><g
           transform="translate(196.5884,309.6729)"
           id="g570"><path
             id="path572"
             style="fill:#691302;fill-opacity:1;fill-rule:nonzero;stroke:none"
             d="m 0,0 v 0 c 0,0 -19.002,-25.598 -39.763,-34.451 8.555,-5.07 17.511,-8.188 26.339,-8.911 -6.557,-9.631 -13.924,-17.666 -21.651,-24.41 16.805,-17.473 39.231,-35.863 39.231,-35.863 l 33.389,74.729 C 25.933,-17.794 12.373,-8.121 0,0" /></g><g
           transform="translate(227.1133,164.6006)"
           id="g574"><path
             id="path576"
             style="fill:#c64211;fill-opacity:1;fill-rule:nonzero;stroke:none"
             d="m 0,0 c 75.461,65.325 14.546,115.491 -30.525,145.072 0,-0.001 0,-0.003 0,-0.004 -2.902,-34.495 -13.424,-43.358 -13.424,-43.358 -40.181,-59.016 -110.5,-59.016 -110.5,-59.016 l 64.04,-37.672 -23.858,-56.504 c 0,0 65.296,7.534 114.267,51.482" /></g><g
           transform="translate(770.5962,532.9795)"
           id="g578"><path
             id="path580"
             style="fill:#f2ecd6;fill-opacity:1;fill-rule:nonzero;stroke:none"
             d="m 0,0 c -57.114,14.2 -107.817,37.555 -148.352,66.15 -9.956,7.025 -23.807,2.267 -27.175,-9.443 -25.179,-87.541 -76.137,-320.179 58.914,-416.439 14.83,-10.571 33.131,-15.121 51.185,-12.726 164.406,21.809 228.325,251.223 247.074,340.362 2.507,11.924 -7.503,22.615 -19.589,21.072 C 112.85,-17.309 57.113,-14.2 0,0" /></g><g
           transform="translate(901.3047,435.3613)"
           id="g582"><path
             id="path584"
             style="fill:#d1cab3;fill-opacity:1;fill-rule:nonzero;stroke:none"
             d="m 0,0 c -35.641,-16.959 -91.874,-6.488 -103.905,26.652 0,0 -2.622,-10.048 -4.185,-18.133 -1.565,-8.085 21.259,-68.062 86.581,-63.328 18.058,2.963 33.865,10.108 43.063,14.966 C 32.76,-8.061 40.87,21.756 46.508,45.684 38.37,31.99 22.904,10.898 0,0" /></g><g
           transform="translate(744.4053,316.3955)"
           id="g586"><path
             id="path588"
             style="fill:#bda5a3;fill-opacity:1;fill-rule:nonzero;stroke:none"
             d="m 0,0 c -12.961,-9.305 -28.834,-4.731 -28.834,-4.731 0,0 -16.166,3.392 -23.261,17.683 -7.385,10.605 -24.342,12.942 -24.342,12.942 0,0 9.748,-13.698 16.993,-29.905 7.244,-16.206 25.77,-20.185 25.77,-20.185 0,0 18.233,-5.16 32.224,5.766 C 12.54,-7.503 27.568,0.035 27.568,0.035 27.568,0.035 11.492,5.912 0,0" /></g><g
           transform="translate(702.8384,260.4502)"
           id="g590"><path
             id="path592"
             style="fill:#470909;fill-opacity:1;fill-rule:nonzero;stroke:none"
             d="M 0,0 C 28.092,-6.984 52.67,-19.39 71.662,-34.839 65.102,-11.229 39.31,10.784 4.813,19.361 -29.684,27.938 -62.781,20.565 -79.634,2.777 -55.618,7.533 -28.093,6.985 0,0" /></g><g
           transform="translate(695.4434,230.709)"
           id="g594"><path
             id="path596"
             style="fill:#bda5a3;fill-opacity:1;fill-rule:nonzero;stroke:none"
             d="M 0,0 C 18.874,-4.692 34.923,-14.888 46.894,-28.438 44.102,-6.079 27.921,13.322 4.746,19.084 -18.431,24.847 -41.813,15.281 -54.751,-3.167 -37.828,3.2 -18.874,4.692 0,0" /></g><g
           transform="translate(952.2417,500.8838)"
           id="g598"><path
             id="path600"
             style="fill:#bda5a3;fill-opacity:1;fill-rule:nonzero;stroke:none"
             d="m 0,0 c 2.508,11.924 -7.502,22.614 -19.589,21.07 -49.206,-6.283 -104.944,-3.174 -162.057,11.026 -57.113,14.199 -107.816,37.554 -148.351,66.15 -2.828,1.996 -5.97,3.01 -9.098,3.214 0,0 24.045,-26.924 70.657,-48.534 46.613,-21.611 122.858,-44.951 200.551,-47.358 42.9,-1.27 55.896,-48.93 16.048,-166.806 C -23.799,-99.935 -7.895,-37.533 0,0" /></g><g
           transform="translate(761.6162,458.6768)"
           id="g602"><path
             id="path604"
             style="fill:#d1cab3;fill-opacity:1;fill-rule:nonzero;stroke:none"
             d="m 0,0 c 0,0 -13.79,-93.654 -31.677,-127.411 -7.499,-15.046 -26.385,-2.835 -16.24,17.817 10.146,20.652 27.624,70.797 30.101,93.356 C -15.339,6.319 2.124,13.307 0,0" /></g><g
           transform="translate(894.7573,327.6875)"
           id="g606"><path
             id="path608"
             style="fill:#bda5a3;fill-opacity:1;fill-rule:nonzero;stroke:none"
             d="M 0,0 C -63.357,-9.751 -106.327,29.747 -106.327,29.747 -88.867,-8.384 -42.313,-27.109 -18.35,-34.466 -11.761,-23.198 -5.656,-11.651 0,0" /></g><g
           transform="translate(564.7515,409.7354)"
           id="g610"><path
             id="path612"
             style="fill:#bda5a3;fill-opacity:1;fill-rule:nonzero;stroke:none"
             d="M 0,0 C 51.416,-38.286 107.878,-23.51 107.878,-23.51 74.594,-49.024 24.691,-43.769 0.074,-39.046 -0.471,-26.005 -0.458,-12.943 0,0" /></g><g
           transform="translate(807.6743,296.2803)"
           id="g614"><path
             id="path616"
             style="fill:#d1cab3;fill-opacity:1;fill-rule:nonzero;stroke:none"
             d="M 0,0 C 0,0 27.024,-3.587 16.122,-25.303 27.733,-14.411 28.3,2.985 0,0" /></g><g
           transform="translate(626.9883,341.2041)"
           id="g618"><path
             id="path620"
             style="fill:#d1cab3;fill-opacity:1;fill-rule:nonzero;stroke:none"
             d="M 0,0 C 0,0 -25.558,9.486 -26.095,-14.808 -31.254,0.254 -23.608,15.891 0,0" /></g><g
           transform="translate(826.6592,398.7559)"
           id="g622"><path
             id="path624"
             style="fill:#470909;fill-opacity:1;fill-rule:nonzero;stroke:none"
             d="m 0,0 c -16.076,11.759 -27.344,27.641 -33.445,45.124 -6.013,-22.279 1.814,-46.94 21.555,-61.38 C 7.852,-30.695 33.725,-30.683 53.136,-18.203 34.625,-17.685 16.077,-11.759 0,0" /></g><g
           transform="translate(845.209,432.5342)"
           id="g626"><path
             id="path628"
             style="fill:#bda5a3;fill-opacity:1;fill-rule:nonzero;stroke:none"
             d="m 0,0 c -19.293,4.948 -35.652,15.511 -47.81,29.479 2.69,-22.919 19.114,-42.912 42.806,-48.988 23.691,-6.077 47.711,3.541 61.1,22.336 C 38.717,-3.564 19.293,-4.949 0,0" /></g><g
           transform="translate(609.3906,507.9385)"
           id="g630"><path
             id="path632"
             style="fill:#d1cab3;fill-opacity:1;fill-rule:nonzero;stroke:none"
             d="m 0,0 c 23.549,-31.675 78.139,-48.757 104.289,-25.11 0,0 -2.39,-10.106 -4.794,-17.982 -2.404,-7.876 -50.658,-50.181 -106.157,-15.408 -14.568,11.075 -25.189,24.789 -31.041,33.391 4.982,33.329 11.78,63.472 18.004,87.254 C -18.921,46.234 -15.133,20.354 0,0" /></g><g
           transform="translate(658.2021,440.6387)"
           id="g634"><path
             id="path636"
             style="fill:#470909;fill-opacity:1;fill-rule:nonzero;stroke:none"
             d="M 0,0 C 19.712,2.861 37.105,11.617 50.684,24.208 45.563,1.706 27.099,-16.418 2.894,-19.932 -21.311,-23.444 -44.167,-11.317 -55.474,8.8 -38.875,0.589 -19.711,-2.861 0,0" /></g><g
           transform="translate(657.6309,479.1699)"
           id="g638"><path
             id="path640"
             style="fill:#bda5a3;fill-opacity:1;fill-rule:nonzero;stroke:none"
             d="M 0,0 C 19.365,-4.662 38.766,-2.99 56.048,3.658 42.939,-15.333 19.064,-25.306 -4.715,-19.581 -28.493,-13.854 -45.212,5.892 -48.24,28.769 -35.878,14.982 -19.364,4.663 0,0" /></g><g
           id="g642"><g
             id="g644" /><g
             id="g656"><g
               style="opacity:0.44000202"
               id="g654"
               clip-path="url(#clipPath648)"><g
                 id="g652"
                 transform="translate(609.2192,586.5498)"><path
                   id="path650"
                   style="fill:#ffffff;fill-opacity:1;fill-rule:nonzero;stroke:none"
                   d="m 0,0 c 0,0 55.347,-52.176 137.137,-69.17 81.791,-16.995 44.078,-37.683 -17.472,-16.534 C 58.115,-64.555 -3.926,-15.795 0,0" /></g></g></g></g><g
           id="g658"><g
             id="g660" /><g
             id="g672"><g
               style="opacity:0.44000202"
               id="g670"
               clip-path="url(#clipPath664)"><g
                 id="g668"
                 transform="translate(727.8145,415.9307)"><path
                   id="path666"
                   style="fill:#ffffff;fill-opacity:1;fill-rule:nonzero;stroke:none"
                   d="m 0,0 c 0,0 -14.683,-45.62 -28.227,-59.79 -11.598,0.378 -16.104,4.004 -28.686,-2.055 7.247,13.231 22.382,13.644 22.382,13.644 0,0 29.247,30.307 34.531,48.201" /></g></g></g></g><g
           id="g674"><g
             id="g676" /><g
             id="g692"><g
               style="opacity:0.44000202"
               id="g690"
               clip-path="url(#clipPath680)"><g
                 id="g684"
                 transform="translate(617.9829,229.4512)"><path
                   id="path682"
                   style="fill:#ffffff;fill-opacity:1;fill-rule:nonzero;stroke:none"
                   d="m 0,0 c -58.304,94.666 -32.153,240.153 -21.802,291.861 5.958,29.766 -1.603,37.42 -9.093,38.568 C -56.321,228.216 -85.761,30.585 36,-56.204 c 14.83,-10.57 33.131,-15.12 51.185,-12.726 6.183,0.821 12.206,1.969 18.108,3.358 C 71.401,-72.819 38.424,-58.589 0,0" /></g><g
                 id="g688"
                 transform="translate(727.8774,164.9912)"><path
                   id="path686"
                   style="fill:#ffffff;fill-opacity:1;fill-rule:nonzero;stroke:none"
                   d="M 0,0 C -0.158,-0.043 -0.316,-0.083 -0.474,-0.125 -0.315,-0.083 -0.158,-0.042 0,0" /></g></g></g></g><g
           id="g694"><g
             id="g696" /><g
             id="g712"><g
               id="g710"
               clip-path="url(#clipPath700)"><g
                 id="g704"
                 transform="translate(763.2964,193.3223)"><path
                   id="path702"
                   style="fill:#d1cab3;fill-opacity:1;fill-rule:nonzero;stroke:none"
                   d="m 0,0 c 95.848,56.34 140.874,197.135 155.944,247.67 8.675,29.09 18.939,32.312 26.094,29.819 -25.4,-102.22 -91.938,-290.627 -240.166,-310.29 -18.055,-2.394 -36.355,2.155 -51.185,12.726 -5.08,3.621 -9.864,7.456 -14.428,11.447 C -97.189,-30.903 -61.387,-33.773 0,0" /></g><g
                 id="g708"
                 transform="translate(636.0107,187.8311)"><path
                   id="path706"
                   style="fill:#d1cab3;fill-opacity:1;fill-rule:nonzero;stroke:none"
                   d="M 0,0 C 0.119,-0.111 0.24,-0.221 0.36,-0.331 0.24,-0.221 0.12,-0.11 0,0" /></g></g></g></g><g
           id="g714"><g
             id="g716" /><g
             id="g728"><g
               id="g726"
               clip-path="url(#clipPath720)"><g
                 id="g724"
                 transform="translate(620.1572,600.3926)"><path
                   id="path722"
                   style="fill:#d1cab3;fill-opacity:1;fill-rule:nonzero;stroke:none"
                   d="m 0,0 c -0.15,0.078 -0.304,0.136 -0.456,0.209 -0.586,0.286 -1.179,0.544 -1.781,0.759 -0.117,0.042 -0.236,0.075 -0.355,0.114 -0.665,0.223 -1.334,0.404 -2.009,0.543 -0.051,0.011 -0.102,0.02 -0.152,0.03 -8.604,1.7 -17.693,-3.176 -20.335,-12.361 -1.697,-5.898 -3.512,-12.474 -5.377,-19.604 -0.004,-0.011 -0.007,-0.025 -0.01,-0.037 -2.327,-8.892 -4.732,-18.67 -7.095,-29.174 -0.007,-0.032 -0.014,-0.062 -0.021,-0.093 -0.453,-2.018 -0.905,-4.06 -1.354,-6.129 -0.033,-0.151 -0.066,-0.298 -0.098,-0.448 -0.287,-1.323 -0.57,-2.661 -0.854,-4.002 -0.022,-0.105 -0.044,-0.208 -0.067,-0.313 -0.009,-0.047 -0.019,-0.094 -0.03,-0.14 -0.091,-0.435 -0.183,-0.866 -0.274,-1.302 -0.288,-1.376 -0.574,-2.767 -0.858,-4.163 -0.121,-0.588 -0.241,-1.176 -0.361,-1.768 -0.266,-1.319 -0.53,-2.649 -0.793,-3.986 -0.133,-0.675 -0.265,-1.351 -0.397,-2.029 -0.254,-1.31 -0.507,-2.626 -0.757,-3.952 -0.136,-0.717 -0.27,-1.436 -0.404,-2.158 -0.245,-1.316 -0.489,-2.636 -0.73,-3.966 -0.135,-0.745 -0.268,-1.496 -0.401,-2.245 -0.236,-1.323 -0.472,-2.646 -0.703,-3.983 -0.133,-0.769 -0.262,-1.546 -0.393,-2.319 -0.228,-1.342 -0.457,-2.683 -0.68,-4.038 -0.115,-0.703 -0.227,-1.415 -0.34,-2.121 -0.459,-2.839 -0.906,-5.702 -1.339,-8.592 -0.013,-0.083 -0.025,-0.165 -0.037,-0.249 -0.003,-0.015 -0.006,-0.031 -0.008,-0.046 v -10e-4 c -0.081,-0.544 -0.166,-1.082 -0.246,-1.626 -0.176,-1.194 -0.344,-2.398 -0.514,-3.598 -0.147,-1.035 -0.297,-2.067 -0.44,-3.108 -0.159,-1.15 -0.311,-2.309 -0.465,-3.465 -0.146,-1.101 -0.293,-2.201 -0.435,-3.306 -0.146,-1.137 -0.286,-2.279 -0.427,-3.423 -0.141,-1.146 -0.281,-2.293 -0.418,-3.445 -0.132,-1.12 -0.261,-2.244 -0.388,-3.369 -0.135,-1.191 -0.267,-2.383 -0.396,-3.578 -0.12,-1.114 -0.238,-2.228 -0.353,-3.346 -0.124,-1.211 -0.244,-2.425 -0.362,-3.642 -0.108,-1.111 -0.216,-2.222 -0.318,-3.338 -0.118,-1.27 -0.228,-2.546 -0.338,-3.823 -0.091,-1.059 -0.184,-2.117 -0.269,-3.181 -0.112,-1.372 -0.213,-2.749 -0.316,-4.126 -0.073,-0.987 -0.151,-1.969 -0.219,-2.958 -0.118,-1.693 -0.223,-3.392 -0.326,-5.09 -0.041,-0.673 -0.088,-1.342 -0.127,-2.015 -0.135,-2.361 -0.257,-4.728 -0.364,-7.099 -0.032,-0.711 -0.056,-1.424 -0.085,-2.136 -0.071,-1.693 -0.139,-3.386 -0.194,-5.083 -0.029,-0.896 -0.049,-1.793 -0.073,-2.691 -0.042,-1.509 -0.082,-3.018 -0.111,-4.53 -0.019,-0.982 -0.03,-1.967 -0.043,-2.95 -0.019,-1.438 -0.036,-2.876 -0.044,-4.317 -0.005,-1.003 -0.005,-2.005 -0.004,-3.008 0,-0.109 -10e-4,-0.218 -10e-4,-0.327 v -0.003 c 10e-4,-1.322 0.008,-2.644 0.02,-3.967 0.01,-1.005 0.022,-2.009 0.037,-3.014 0.022,-1.453 0.053,-2.905 0.087,-4.356 0.024,-0.971 0.048,-1.943 0.078,-2.913 0.045,-1.501 0.102,-3.002 0.162,-4.503 0.01,-0.269 0.018,-0.537 0.029,-0.805 0.028,-0.664 0.055,-1.327 0.086,-1.99 0.074,-1.603 0.163,-3.204 0.254,-4.805 0.046,-0.818 0.087,-1.636 0.138,-2.453 0.122,-1.951 0.263,-3.9 0.411,-5.848 0.036,-0.467 0.064,-0.935 0.102,-1.402 0.194,-2.441 0.41,-4.878 0.647,-7.312 0.039,-0.399 0.087,-0.797 0.127,-1.196 0.202,-2.01 0.415,-4.018 0.648,-6.02 0.087,-0.752 0.187,-1.5 0.278,-2.25 0.201,-1.645 0.406,-3.289 0.629,-4.928 0.118,-0.875 0.249,-1.749 0.373,-2.623 0.217,-1.512 0.438,-3.022 0.673,-4.529 0.144,-0.926 0.297,-1.85 0.449,-2.775 0.239,-1.455 0.486,-2.908 0.743,-4.357 0.167,-0.939 0.336,-1.874 0.511,-2.81 0.269,-1.444 0.549,-2.885 0.837,-4.323 0.184,-0.921 0.368,-1.841 0.56,-2.759 0.305,-1.459 0.625,-2.912 0.95,-4.363 0.198,-0.885 0.393,-1.772 0.599,-2.653 0.356,-1.532 0.733,-3.055 1.112,-4.579 0.196,-0.782 0.384,-1.568 0.584,-2.349 0.466,-1.803 0.956,-3.595 1.454,-5.383 0.137,-0.49 0.264,-0.986 0.403,-1.476 0.656,-2.304 1.339,-4.598 2.052,-6.879 0.075,-0.239 0.158,-0.474 0.233,-0.714 0.633,-2.005 1.286,-4.002 1.965,-5.988 0.237,-0.692 0.49,-1.378 0.733,-2.068 0.535,-1.523 1.075,-3.043 1.638,-4.553 0.305,-0.814 0.623,-1.622 0.935,-2.433 0.529,-1.375 1.063,-2.746 1.617,-4.109 0.348,-0.857 0.708,-1.71 1.065,-2.563 0.269,-0.641 0.548,-1.277 0.822,-1.915 70.402,101.053 59.66,260.246 50.209,331.951 C 12.878,-8.613 7.376,-4.994 2.087,-1.263 1.409,-0.784 0.71,-0.371 0,0" /></g></g></g></g><g
           transform="translate(412.0903,618.2334)"
           id="g730"><path
             id="path732"
             style="fill:#f2ecd6;fill-opacity:1;fill-rule:nonzero;stroke:none"
             d="m 0,0 c -59.596,-11.991 -117.254,-12.603 -167.737,-3.825 -12.4,2.156 -23.227,-8.409 -21.195,-20.83 15.192,-92.854 70.461,-332.561 239.09,-362.724 18.518,-3.312 37.614,0.529 53.409,10.746 143.842,93.036 102.1,335.464 80.198,426.968 -2.93,12.241 -17.001,17.795 -27.602,11.011 C 113.003,33.728 59.595,11.991 0,0" /></g><g
           transform="translate(483.3833,404.4629)"
           id="g734"><path
             id="path736"
             style="fill:#bda5a3;fill-opacity:1;fill-rule:nonzero;stroke:none"
             d="m 0,0 c -7.987,-14.416 -24.827,-17.164 -24.827,-17.164 0,0 -16.592,-3.979 -29.533,6.226 -11.582,6.635 -28.444,1.321 -28.444,1.321 0,0 15.155,-8.479 29.082,-20.405 13.928,-11.928 32.982,-7.454 32.982,-7.454 0,0 19.302,3.244 27.533,19.629 C 15.023,-1.461 25.72,12.219 25.72,12.219 25.72,12.219 8.114,10.598 0,0" /></g><g
           transform="translate(467.0435,345.1191)"
           id="g738"><path
             id="path740"
             style="fill:#470909;fill-opacity:1;fill-rule:nonzero;stroke:none"
             d="m 0,0 c -35.961,-7.235 -71.548,-2.81 -102.892,10.626 22.807,-35.86 66.05,-55.872 110.208,-46.987 44.158,8.884 76.297,44.064 83.459,85.954 C 67.067,25.08 35.96,7.236 0,0" /></g><g
           transform="translate(478.5264,288.0479)"
           id="g742"><path
             id="path744"
             style="fill:#bda5a3;fill-opacity:1;fill-rule:nonzero;stroke:none"
             d="M 0,0 C -19.694,-3.962 -39.184,-1.539 -56.349,5.819 -43.859,-13.82 -20.176,-24.779 4.007,-19.913 28.19,-15.047 45.791,4.219 49.714,27.16 36.73,13.735 19.694,3.963 0,0" /></g><g
           transform="translate(595.855,668.5684)"
           id="g746"><path
             id="path748"
             style="fill:#bda5a3;fill-opacity:1;fill-rule:nonzero;stroke:none"
             d="m 0,0 c -2.93,12.241 -17.001,17.795 -27.602,11.011 -43.159,-27.618 -96.567,-49.355 -156.163,-61.346 -59.595,-11.991 -117.254,-12.603 -167.736,-3.825 -3.522,0.613 -6.905,0.17 -9.915,-1.021 0,0 34.35,-14.507 87.418,-14.075 53.069,0.431 134.566,12.345 208.16,44.445 40.611,17.777 73.813,-20.97 88.72,-148.629 C 21.959,-103.815 9.222,-38.529 0,0" /></g><g
           transform="translate(436.5537,544.8984)"
           id="g750"><path
             id="path752"
             style="fill:#d1cab3;fill-opacity:1;fill-rule:nonzero;stroke:none"
             d="M 0,0 C 0,0 28.527,-93.528 26.751,-132.948 26.401,-150.311 3.372,-147.259 3.714,-123.494 4.056,-99.729 -1.794,-45.19 -9.454,-23.036 -17.114,-0.882 -3.899,13.36 0,0" /></g><g
           transform="translate(618.7529,481.4687)"
           id="g754"><path
             id="path756"
             style="fill:#bda5a3;fill-opacity:1;fill-rule:nonzero;stroke:none"
             d="M 0,0 C -54.838,-37.111 -112.412,-19.231 -112.412,-19.231 -79.255,-47.11 -27.518,-44.013 -1.895,-40.288 -0.725,-26.856 -0.13,-13.377 0,0" /></g><g
           transform="translate(274.4048,412.1826)"
           id="g758"><path
             id="path760"
             style="fill:#bda5a3;fill-opacity:1;fill-rule:nonzero;stroke:none"
             d="M 0,0 C 64.924,-13.014 111.102,25.741 111.102,25.741 91.309,-12.791 42.398,-29.945 17.329,-36.419 11.055,-24.486 5.294,-12.285 0,0" /></g><g
           transform="translate(551.3398,413.6523)"
           id="g762"><path
             id="path764"
             style="fill:#d1cab3;fill-opacity:1;fill-rule:nonzero;stroke:none"
             d="M 0,0 C 0,0 26.814,8.598 26.237,-16.495 32.262,-1.193 25.101,15.298 0,0" /></g><g
           transform="translate(362.8003,375.7168)"
           id="g766"><path
             id="path768"
             style="fill:#d1cab3;fill-opacity:1;fill-rule:nonzero;stroke:none"
             d="M 0,0 C 0,0 -28.052,-2.442 -17.815,-25.358 -29.289,-13.578 -29.063,4.399 0,0" /></g><g
           transform="translate(482.9585,488.416)"
           id="g770"><path
             id="path772"
             style="fill:#d1cab3;fill-opacity:1;fill-rule:nonzero;stroke:none"
             d="M 0,0 C 0,0 -2.395,36.73 0.88,53.829 4.155,70.927 47.835,122.836 95.168,78.564 107.261,56.662 108.625,21.856 108.625,21.856 108.625,21.856 42.691,67.013 0,0" /></g><g
           transform="translate(396.9448,471.1094)"
           id="g774"><path
             id="path776"
             style="fill:#d1cab3;fill-opacity:1;fill-rule:nonzero;stroke:none"
             d="m 0,0 c 0,0 -11.997,34.798 -21.63,49.299 -9.633,14.501 -69.991,45.477 -96.518,-13.656 -2.68,-24.875 9.524,-57.499 9.524,-57.499 0,0 43.338,67.142 108.624,21.856" /></g><g
           transform="translate(533.8726,516.2314)"
           id="g778"><path
             id="path780"
             style="fill:#470909;fill-opacity:1;fill-rule:nonzero;stroke:none"
             d="M 0,0 C 20.169,4.059 40.13,1.576 57.71,-5.959 44.918,14.154 20.664,25.379 -4.104,20.396 -28.871,15.412 -46.896,-4.319 -50.914,-27.815 -37.617,-14.066 -20.169,-4.058 0,0" /></g><g
           transform="translate(483.8384,542.2446)"
           id="g782"><path
             id="path784"
             style="fill:#bda5a3;fill-opacity:1;fill-rule:nonzero;stroke:none"
             d="M 0,0 C 0,0 31.943,60.863 94.289,24.736 81.085,48.977 48.326,55.834 26.422,43.742 4.519,31.649 -1.362,6.771 0,0" /></g><g
           transform="translate(339.2349,477.0693)"
           id="g786"><path
             id="path788"
             style="fill:#470909;fill-opacity:1;fill-rule:nonzero;stroke:none"
             d="m 0,0 c -20.17,-4.059 -37.617,-14.067 -50.914,-27.816 4.017,23.496 22.043,43.227 46.81,48.211 C 20.664,25.378 44.918,14.154 57.71,-5.96 40.13,1.576 20.17,4.058 0,0" /></g><g
           transform="translate(375.3145,520.4082)"
           id="g790"><path
             id="path792"
             style="fill:#bda5a3;fill-opacity:1;fill-rule:nonzero;stroke:none"
             d="m 0,0 c 0,0 -52.996,43.773 -96.518,-13.656 2.8,27.461 30.359,46.455 55.235,43.775 C -16.408,27.439 -1.362,6.771 0,0" /></g><g
           id="g794"><g
             id="g796" /><g
             id="g808"><g
               style="opacity:0.44000202"
               id="g806"
               clip-path="url(#clipPath800)"><g
                 id="g804"
                 transform="translate(237.7559,596.9062)"><path
                   id="path802"
                   style="fill:#ffffff;fill-opacity:1;fill-rule:nonzero;stroke:none"
                   d="M 0,0 C 0,0 74.733,-24.243 158.602,-3.952 242.47,16.339 216.409,-19.645 149.6,-27.111 82.79,-34.576 3.316,-16.481 0,0" /></g></g></g></g><g
           id="g810"><g
             id="g812" /><g
             id="g824"><g
               style="opacity:0.44000202"
               id="g822"
               clip-path="url(#clipPath816)"><g
                 id="g820"
                 transform="translate(423.894,490.0498)"><path
                   id="path818"
                   style="fill:#ffffff;fill-opacity:1;fill-rule:nonzero;stroke:none"
                   d="m 0,0 c 0,0 6.459,-49.08 0.08,-68.295 -10.995,-4.774 -16.805,-3.382 -25.872,-14.599 0.916,15.555 14.862,22.63 14.862,22.63 0,0 13.908,41.224 10.93,60.264" /></g></g></g></g><g
           id="g826"><g
             id="g828" /><g
             id="g844"><g
               style="opacity:0.44000202"
               id="g842"
               clip-path="url(#clipPath832)"><g
                 id="g836"
                 transform="translate(403.7954,267.4082)"><path
                   id="path834"
                   style="fill:#ffffff;fill-opacity:1;fill-rule:nonzero;stroke:none"
                   d="m 0,0 c -96.278,62.603 -136.179,209.983 -149.374,262.832 -7.596,30.421 -18.038,34.225 -25.537,31.985 21.448,-106.663 81.328,-304.175 233.364,-331.371 18.518,-3.312 37.614,0.53 53.41,10.746 5.409,3.498 10.525,7.234 15.421,11.139 C 98.848,-36.417 61.771,-37.71 0,0" /></g><g
                 id="g840"
                 transform="translate(534.8828,255.8115)"><path
                   id="path838"
                   style="fill:#ffffff;fill-opacity:1;fill-rule:nonzero;stroke:none"
                   d="M 0,0 C -0.128,-0.11 -0.259,-0.217 -0.388,-0.325 -0.258,-0.217 -0.129,-0.108 0,0" /></g></g></g></g><g
           id="g846"><g
             id="g848" /><g
             id="g864"><g
               id="g862"
               clip-path="url(#clipPath852)"><g
                 id="g856"
                 transform="translate(555.4243,297.918)"><path
                   id="path854"
                   style="fill:#d1cab3;fill-opacity:1;fill-rule:nonzero;stroke:none"
                   d="m 0,0 c 64.573,94.967 44.369,246.311 36.097,300.149 -4.761,30.992 3.398,38.538 11.179,39.374 C 68.75,232.865 89.92,27.564 -39.766,-56.317 c -15.796,-10.217 -34.892,-14.059 -53.41,-10.746 -6.342,1.133 -12.503,2.598 -18.528,4.306 C -77.07,-71.813 -42.379,-58.666 0,0" /></g><g
                 id="g860"
                 transform="translate(439.0234,236.5244)"><path
                   id="path858"
                   style="fill:#d1cab3;fill-opacity:1;fill-rule:nonzero;stroke:none"
                   d="M 0,0 C 0.161,-0.052 0.323,-0.101 0.483,-0.15 0.322,-0.102 0.161,-0.051 0,0" /></g></g></g></g></g></g><text
       id="text872"
       style="font-variant:normal;font-weight:500;font-stretch:normal;font-size:20.18610001px;font-family:'Montserrat Medium';-inkscape-font-specification:Montserrat-Medium;writing-mode:lr-tb;fill:#f4ddcc;fill-opacity:1;fill-rule:nonzero;stroke:none"
       transform="matrix(1,0,0,-1,1384.7988,456.4551)"><tspan
         id="tspan866"
         y="0"
         x="0 11.84924 24.667414 32.701481 45.055374 66.392082 71.822144 77.454063 91.220985 101.33422 115.00021 136.33691 141.76698 155.53391 168.35208 173.98399 186.80217 195.07848 200.50853 210.62177 216.25369 224.61073 230.0408 242.11208 263.50934 275.86325 284.42215 289.00439 294.43445 305.79922 318.6174 332.36414 342.47739 354.83127 366.49884 374.49252 386.84644 395.20346 408.86945 417.14575">Lorem ipsum dolor sit amet, consectetur </tspan><tspan
         id="tspan868"
         y="25.232624"
         x="-31.57106 -19.439215 -5.6722941 -0.0403722 13.726548 19.358469 29.471706 40.997971 46.62989 60.435165 74.363571 79.793633 92.14753 97.779449 103.41137 111.97028 116.55252 121.98258 132.09583 144.44971 158.21663 163.6467 177.41362 190.23178 195.66185 208.01575 213.64766 227.31366 237.4269 258.82214 271.64032 285.40723 290.83728 298.83099 311.18488 332.52158 346.28851 359.10669 367.383 372.81305 378.44498 392.25226 403.77853 409.41043">adipiscing elit, sed do eiusmod tempor inci-</tspan><tspan
         id="tspan870"
         y="50.465248"
         x="-27.594398 -13.827478 -8.1955566 5.5713634 19.237352 32.984089 41.341133 46.771194 60.437183 68.794228 74.224289 79.856209 91.927498 105.69442 118.5126 126.54464 138.89853 144.3286 156.6825 165.03954 170.46959 184.23651 197.05469 202.68661 215.50479 223.53885 235.89275 241.3228 262.65952 274.79135 288.71976 302.46649 314.53778 319.96786 332.03915 337.67105 343.30298 357.06992 370.7359 382.80719 387.38943 392.81949 408.78668 417.14374">didunt ut labore et dolore magna aliqua. Ut </tspan></text>
<g
       id="g874"><g
         clip-path="url(#clipPath880)"
         id="g876"><g
           transform="translate(1773.5254,226.9043)"
           id="g882"><path
             id="path884"
             style="fill:#ffa700;fill-opacity:1;fill-rule:nonzero;stroke:none"
             d="m 0,0 h -214.277 c -15.628,0 -28.414,12.786 -28.414,28.414 0,15.628 12.786,28.415 28.414,28.415 H 0 c 15.628,0 28.414,-12.787 28.414,-28.415 C 28.414,12.786 15.628,0 0,0" /></g></g></g><text
       id="text888"
       style="font-variant:normal;font-weight:900;font-stretch:normal;font-size:29.18580055px;font-family:'Montserrat Black';-inkscape-font-specification:Montserrat-Black;writing-mode:lr-tb;fill:#470909;fill-opacity:1;fill-rule:nonzero;stroke:none"
       transform="matrix(1,0,0,-1,1558.769,245.9326)"><tspan
         id="tspan886"
         y="0"
         x="0 16.752649 41.502209 51.717239 75.182617 83.938362 106.82003 125.9951 134.75084 158.21622 182.23613">JOIN US NOW</tspan></text>
<text
       id="text892"
       style="font-variant:normal;font-weight:600;font-stretch:normal;font-size:24.51499939px;font-family:'Montserrat SemiBold';-inkscape-font-specification:Montserrat-SemiBold;writing-mode:lr-tb;fill:#ffa700;fill-opacity:1;fill-rule:nonzero;stroke:none"
       transform="matrix(1,0,0,-1,1550.5991,333.7852)"><tspan
         id="tspan890"
         y="0"
         x="0 20.24939 35.497719 49.544815 64.793144 90.607437 107.42473 122.67306 132.96936 139.7355 149.07571 155.84186 164.93692 171.70306 188.20166 203.57256 210.3387 225.2193">December 1 / 09 am</tspan></text>
<text
       id="text896"
       style="font-variant:normal;font-weight:900;font-stretch:normal;font-size:27.97319984px;font-family:'Montserrat Black';-inkscape-font-specification:Montserrat-Black;writing-mode:lr-tb;fill:#ffa700;fill-opacity:1;fill-rule:nonzero;stroke:none"
       transform="matrix(1,0,0,-1,390.7529,929.874)"><tspan
         id="tspan894"
         y="0"
         x="0 18.378393 38.882748 57.70871 80.255112 101.65461 120.48058 141.3206 159.55913 168.06299">SPEAKERS: </tspan></text>
<text
       id="text900"
       style="font-variant:normal;font-weight:600;font-stretch:normal;font-size:27.97319984px;font-family:'Montserrat SemiBold';-inkscape-font-specification:Montserrat-SemiBold;writing-mode:lr-tb;fill:#ffa700;fill-opacity:1;fill-rule:nonzero;stroke:none"
       transform="matrix(1,0,0,-1,390.7529,896.30616)"><tspan
         id="tspan898"
         y="0"
         x="0 17.595142 34.574875 46.099834 63.079567 82.241211 89.961815 116.67622 124.76048 132.84473 140.92899 158.32831">Sarah Miller</tspan></text>
<text
       id="text908"
       style="font-variant:normal;font-weight:900;font-stretch:normal;font-size:46.43239975px;font-family:'Montserrat Black';-inkscape-font-specification:Montserrat-Black;writing-mode:lr-tb;fill:#f4ddcc;fill-opacity:1;fill-rule:nonzero;stroke:none"
       transform="matrix(1,0,0,-1,1347.1499,499.1504)"><tspan
         id="tspan902"
         y="0"
         x="0 39.374676 76.706322 105.35512 121.60645 158.93811">ONLINE</tspan><tspan
         id="tspan904"
         y="0"
         x="190.1871"> </tspan><tspan
         id="tspan906"
         y="0"
         x="204.11684 259.41782 290.66681 326.55908 342.81039 380.14206 417.56656">WEBINAR</tspan></text>
<text
       id="text914"
       style="font-variant:normal;font-weight:normal;font-stretch:normal;font-size:131.07389832px;font-family:'Rammetto One';-inkscape-font-specification:RammettoOne-Regular;writing-mode:lr-tb;fill:#f2ecd6;fill-opacity:1;fill-rule:nonzero;stroke:none"
       transform="matrix(1,0,0,-1,1204.9785,728.6372)"><tspan
         id="tspan910"
         y="0"
         x="0 110.36423 233.04939 369.23517 487.20169">GRAND</tspan><tspan
         id="tspan912"
         y="129.23888"
         x="-126.09309 -1.8350346 110.23315 201.32951 319.29602 374.74026 492.70679">OPENING</tspan></text>
<g
       id="g916"><g
         clip-path="url(#clipPath922)"
         id="g918"><g
           transform="translate(1799.5254,854.0718)"
           id="g924"><path
             id="path926"
             style="fill:#ffa700;fill-opacity:1;fill-rule:nonzero;stroke:none"
             d="m 0,0 h -592.554 l 25.871,29.595 -25.871,29.595 H 0 L -27.103,29.595 Z" /></g></g></g><text
       id="text930"
       style="font-variant:normal;font-weight:500;font-stretch:normal;font-size:50.3871994px;font-family:'Montserrat Medium';-inkscape-font-specification:Montserrat-Medium;writing-mode:lr-tb;fill:#470909;fill-opacity:1;fill-rule:nonzero;stroke:none"
       transform="matrix(1,0,0,-1,1375.415,865.3359)"><tspan
         id="tspan928"
         y="0"
         x="0 58.801861 113.57275 167.33589 221.09903">HAPPY</tspan></text>
</g></svg>